<?xml version="1.0" encoding="utf-8"?>
<!-- Generator: Adobe Illustrator 21.0.0, SVG Export Plug-In . SVG Version: 6.00 Build 0)  -->
<svg version="1.1" id="驗證碼-icon" xmlns="http://www.w3.org/2000/svg" xmlns:xlink="http://www.w3.org/1999/xlink" x="0px"
	 y="0px" viewBox="0 0 30 27" style="enable-background:new 0 0 30 27;" xml:space="preserve">
<style type="text/css">
	.st0{fill:none;stroke:#666666;}
	.st1{fill:#666666;}
	.st2{font-family:'MicrosoftYaHei';}
	.st3{font-size:14.3px;}
</style>
<path id="圆角矩形_1909" class="st0" d="M29.5,20v3.9c0,1.4-1.2,2.6-2.6,2.6c0,0,0,0,0,0H3.1c-1.4,0-2.6-1.2-2.6-2.6
	c0,0,0,0,0,0V20 M0.5,7V3.1c0-1.4,1.2-2.6,2.6-2.6c0,0,0,0,0,0h23.7c1.4,0,2.6,1.1,2.6,2.6c0,0,0,0,0,0V7"/>
<text id="_123" transform="matrix(1.0138 0 0 1 2.2325 18.9581)" class="st1 st2 st3">123</text>
</svg>
