<?xml version="1.0" encoding="utf-8"?>
<!-- Generator: Adobe Illustrator 21.0.0, SVG Export Plug-In . SVG Version: 6.00 Build 0)  -->
<svg version="1.1" id="輸入密碼-icon" xmlns="http://www.w3.org/2000/svg" xmlns:xlink="http://www.w3.org/1999/xlink" x="0px"
	 y="0px" viewBox="0 0 28 33" style="enable-background:new 0 0 28 33;" xml:space="preserve">
<style type="text/css">
	.st0{fill:none;stroke:#666666;}
	.st1{fill:#666666;}
</style>
<path id="圆角矩形_1896" class="st0" d="M2.5,12.5h23c1.1,0,2,0.9,2,2v16c0,1.1-0.9,2-2,2h-23c-1.1,0-2-0.9-2-2v-16
	C0.5,13.4,1.4,12.5,2.5,12.5z"/>
<path id="圆角矩形_1897" class="st0" d="M4.6,12.5V9.8c0.1-5.2,4.4-9.4,9.6-9.3c5.1,0.1,9.2,4.2,9.3,9.3v2.7"/>
<g id="圆角矩形_1898">
	<path class="st1" d="M14.5,20.5v4V20.5 M15,19.5h-1c-0.3,0-0.5,0.2-0.5,0.5v5c0,0.3,0.2,0.5,0.5,0.5h1c0.3,0,0.5-0.2,0.5-0.5v-5
		C15.5,19.7,15.3,19.5,15,19.5L15,19.5z"/>
</g>
</svg>
