<svg xmlns="http://www.w3.org/2000/svg" width="17.844" height="17.844" viewBox="0 0 17.844 17.844">
  <metadata><?xpacket begin="﻿" id="W5M0MpCehiHzreSzNTczkc9d"?>
<x:xmpmeta xmlns:x="adobe:ns:meta/" x:xmptk="Adobe XMP Core 5.6-c138 79.159824, 2016/09/14-01:09:01        ">
   <rdf:RDF xmlns:rdf="http://www.w3.org/1999/02/22-rdf-syntax-ns#">
      <rdf:Description rdf:about=""/>
   </rdf:RDF>
</x:xmpmeta>
                                                                                                    
                                                                                                    
                                                                                                    
                                                                                                    
                                                                                                    
                                                                                                    
                                                                                                    
                                                                                                    
                                                                                                    
                                                                                                    
                                                                                                    
                                                                                                    
                                                                                                    
                                                                                                    
                                                                                                    
                                                                                                    
                                                                                                    
                                                                                                    
                                                                                                    
                                                                                                    
                           
<?xpacket end="w"?></metadata>
<defs>
    <style>
      .cls-1 {
        fill-rule: evenodd;
        opacity: 0.16;
      }
    </style>
  </defs>
  <path id="关闭-btn" class="cls-1" d="M17.713,2.582a0.74,0.74,0,0,0,0-1.043L16.461,0.287a0.74,0.74,0,0,0-1.043,0l-5.9,5.9a0.74,0.74,0,0,1-1.043,0l-5.9-5.9a0.74,0.74,0,0,0-1.043,0L0.287,1.539a0.74,0.74,0,0,0,0,1.044l5.9,5.9a0.74,0.74,0,0,1,0,1.043l-5.9,5.9a0.74,0.74,0,0,0,0,1.043l1.252,1.252a0.74,0.74,0,0,0,1.044,0l5.9-5.9a0.74,0.74,0,0,1,1.044,0l5.9,5.9a0.74,0.74,0,0,0,1.043,0l1.252-1.252a0.74,0.74,0,0,0,0-1.043l-5.9-5.9a0.74,0.74,0,0,1,0-1.043Zm0,0" transform="translate(-0.094 -0.094)"/>
</svg>
