<?xml version="1.0" standalone="no"?>
<!DOCTYPE svg PUBLIC "-//W3C//DTD SVG 1.1//EN" "http://www.w3.org/Graphics/SVG/1.1/DTD/svg11.dtd" >
<svg xmlns="http://www.w3.org/2000/svg">
<metadata>Generated by IcoMoon</metadata>
<defs>
<font id="icomoon" horiz-adv-x="1024">
<font-face units-per-em="1024" ascent="960" descent="-64" />
<missing-glyph horiz-adv-x="1024" />
<glyph unicode="&#x20;" horiz-adv-x="512" d="" />
<glyph unicode="&#xe900;" glyph-name="cheveron-down" d="M475.802 309.76l36.198-36.198 289.638 289.638-72.397 72.397-217.242-217.19-217.242 217.19-72.397-72.397z" />
<glyph unicode="&#xe901;" glyph-name="cheveron-left" d="M360.96 496.998l-36.198-36.198 289.638-289.638 72.397 72.397-217.19 217.242 217.19 217.242-72.397 72.397z" />
<glyph unicode="&#xe902;" glyph-name="cheveron-right" d="M663.040 424.602l36.198 36.198-289.638 289.638-72.397-72.397 217.19-217.242-217.19-217.242 72.397-72.397 253.44 253.44z" />
<glyph unicode="&#xe903;" glyph-name="cheveron-up" d="M548.198 611.84l-36.198 36.198-289.638-289.638 72.397-72.397 217.242 217.19 217.242-217.19 72.397 72.397z" />
<glyph unicode="&#xe904;" glyph-name="close" d="M512 533.197l-362.035 362.035-72.397-72.397 362.035-362.035-362.035-362.035 72.397-72.397 362.035 362.035 362.035-362.035 72.397 72.397-362.035 362.035 362.035 362.035-72.397 72.397-362.035-362.035z" />
<glyph unicode="&#xe905;" glyph-name="exclamation-solid" d="M150.016 98.816c-96.436 93.233-156.308 223.762-156.308 368.276 0 282.77 229.23 512 512 512 144.514 0 275.043-59.872 368.137-156.164l0.138-0.144c88.925-91.979 143.724-217.436 143.724-355.692 0-282.77-229.23-512-512-512-138.256 0-263.713 54.799-355.836 143.863l0.144-0.138zM460.8 716.8v-307.2h102.4v307.2h-102.4zM460.8 307.2v-102.4h102.4v102.4h-102.4z" />
<glyph unicode="&#xe906;" glyph-name="minus-outline" d="M512-51.2c-282.77 0-512 229.23-512 512s229.23 512 512 512v0c282.77 0 512-229.23 512-512s-229.23-512-512-512v0zM512 51.2c226.216 0 409.6 183.384 409.6 409.6s-183.384 409.6-409.6 409.6v0c-226.216 0-409.6-183.384-409.6-409.6s183.384-409.6 409.6-409.6v0zM768 512v-102.4h-512v102.4h512z" />
<glyph unicode="&#xe907;" glyph-name="minus-solid" d="M512-51.2c-282.77 0-512 229.23-512 512s229.23 512 512 512v0c282.77 0 512-229.23 512-512s-229.23-512-512-512v0zM768 512h-512v-102.4h512v102.4z" />
<glyph unicode="&#xe908;" glyph-name="user-solid-circle" d="M512-51.2c-282.77 0-512 229.23-512 512s229.23 512 512 512v0c282.77 0 512-229.23 512-512s-229.23-512-512-512v0zM358.4 665.6v-102.4c0-84.831 68.769-153.6 153.6-153.6s153.6 68.769 153.6 153.6v0 102.4c0 84.831-68.769 153.6-153.6 153.6s-153.6-68.769-153.6-153.6v0zM171.52 233.472c74.541-110.327 199.152-181.904 340.48-181.904s265.938 71.577 339.558 180.457l0.922 1.447c-99.91 46.989-216.992 74.415-340.48 74.415s-240.569-27.426-345.486-76.519l5.006 2.104z" />
<glyph unicode="&#xe909;" glyph-name="account" d="M672.665 691.178c51.636 33.145 86.351 69.953 102.051 107.284 20.759 49.019 5.931 96.992-37.332 114.437-19.015 7.676-38.378 7.676-57.916 1.57-13.432-4.187-24.422-9.943-41.693-20.41-17.968-10.816-20.41-12.386-25.993-14.653-2.093-0.872-3.663-1.396-4.71-1.57-3.838 2.093-8.199 8.199-17.096 24.771v0c-9.595 17.968-14.479 25.993-23.201 35.064-13.258 14.305-30.179 22.329-50.589 22.329-19.887 0-36.634-7.152-50.589-20.236-9.071-8.373-14.479-15.875-25.469-32.796-9.246-14.305-13.956-20.585-18.317-23.376-0.523 0.174-1.221 0.523-1.744 0.872-4.71 2.442-5.931 3.14-23.201 15.351-19.887 14.13-32.97 21.457-49.543 25.469-24.422 5.931-48.322 0.523-69.953-17.096-40.123-32.621-38.727-80.769-6.455-129.614 18.666-28.26 47.973-57.567 84.258-85.479-150.722-79.548-268.822-265.507-268.822-417.799 0-189.274 192.065-339.473 425.824-339.473s425.649 150.198 425.649 339.473c0 151.245-116.181 335.111-265.158 415.88zM512.174-4.688c-203.579 0-366.163 127.171-366.163 279.812 0 145.488 132.405 335.635 283.999 385.352 10.118 3.314 17.794 11.688 20.061 22.155s-1.396 21.282-9.42 28.435c-5.233 4.71-11.862 7.152-18.666 7.501-45.705 30.354-82.164 63.847-101.353 92.805-17.27 25.993-17.619 40.82-5.582 50.589 12.211 9.943 20.934 7.85 47.275-10.816l7.152-5.059c2.966-2.093 5.233-3.663 7.501-5.233 6.106-4.187 11.339-7.327 16.747-9.943 16.572-8.199 32.97-10.467 49.368-3.314 20.061 8.548 29.83 19.887 47.275 47.101 13.607 21.282 18.317 25.644 25.993 25.644 6.106 0 9.769-4.012 21.457-25.644 16.224-30.179 25.644-42.739 46.926-51.985 16.224-6.978 32.796-5.582 50.066 1.396 9.769 4.012 12.56 5.582 34.366 18.84 24.946 15.177 36.285 18.666 46.403 14.479 9.769-4.012 13.432-15.526 4.71-35.936-13.607-32.273-52.857-68.732-116.879-101.702-14.13 1.919-28.086-6.455-32.447-20.585-4.884-15.7 3.838-32.273 19.538-37.332 152.989-47.798 287.836-239.689 287.836-386.573 0-152.815-162.584-279.986-366.163-279.986zM512.872 366.534c-0.698 0-1.57 0-2.268 0-0.698 0.174-1.57 0.174-2.268 0.174-22.678 0.698-42.565 15.177-50.415 36.285s-2.268 45.007 14.305 60.533c16.572 15.351 40.82 19.364 61.405 9.943s33.494-30.179 32.621-52.857c-0.349-8.373 3.838-16.224 10.99-20.585 6.978-4.361 15.875-4.71 23.201-0.872s12.037 11.513 12.386 19.712c1.744 49.194-31.575 91.584-77.454 103.098v21.631c0 12.909-10.467 23.376-23.376 23.376s-23.376-10.467-23.376-23.376v-20.759c-44.833-9.595-79.199-48.671-80.943-96.643-1.919-56.521 42.216-103.97 98.911-106.063 0.698 0 1.57 0 2.268 0 0.698-0.174 1.57-0.174 2.268-0.174 33.494-1.221 59.661-29.307 58.44-62.626-1.221-33.494-29.307-59.661-62.626-58.44-33.494 1.221-59.661 29.307-58.44 62.626 0.523 8.373-3.663 16.398-10.816 20.934s-16.049 4.884-23.55 0.872c-7.501-4.012-12.037-11.688-12.211-20.061-1.919-53.381 35.761-99.086 86.525-109.029v-20.585c0-12.909 10.467-23.376 23.376-23.376s23.376 10.467 23.376 23.376v21.806c45.182 11.339 79.373 51.462 81.118 100.307 1.919 59.137-44.309 108.855-103.447 110.773z" />
<glyph unicode="&#xe90a;" glyph-name="alert_back" d="M978.938 414.232c-2.54 0.478-5.461 0.752-8.447 0.752-23.455 0-42.967-16.879-47.052-39.154l-0.045-0.294c-28.356-158.756-147.433-287.688-303.355-328.535-221.264-58.036-448.395 74.785-506.431 296.020s74.856 448.495 296.12 506.488c31.549 8.605 67.773 13.548 105.152 13.548 191.706 0 353.039-130.041 400.6-306.723l0.665-2.902c5.021-21.477 24.006-37.228 46.67-37.228 26.436 0 47.867 21.431 47.867 47.867 0 4.838-0.718 9.509-2.053 13.911l0.088-0.339c-59.325 221.050-257.893 381.127-493.849 381.127-46.002 0-90.582-6.084-132.981-17.492l3.572 0.818c-272.321-71.367-435.82-350.966-364.453-623.344 60.073-229.068 267.479-381.102 493.913-381.102 45.999 0.017 90.564 6.127 132.94 17.568l-3.566-0.82c191.897 50.246 338.404 208.944 373.34 404.302 0.477 2.536 0.749 5.454 0.749 8.435 0 23.457-16.877 42.972-39.151 47.064l-0.294 0.045zM799.119 448.228c0 26.436-21.431 47.867-47.867 47.867h-325.202l137.635 137.635c8.66 8.66 14.017 20.624 14.017 33.839 0 26.43-21.426 47.856-47.856 47.856-13.215 0-25.179-5.356-33.839-14.017l-218.857-218.843c-0.171-0.171-0.385-0.285-0.555-0.456-8.662-8.675-14.019-20.653-14.019-33.882s5.357-25.207 14.020-33.882l-0.001 0.001c0.1-0.1 0.199-0.157 0.299-0.242l219.113-219.056c8.714-9.002 20.909-14.59 34.408-14.59 26.436 0 47.867 21.431 47.867 47.867 0 13.503-5.591 25.7-14.584 34.402l-137.662 137.648h325.216c26.436 0 47.867 21.431 47.867 47.867v0z" />
<glyph unicode="&#xe90b;" glyph-name="createtask" d="M544 159.872l-320-0.16-0.064 96.32-0.064 160-0.032 64-0.096 160-0.032 96 576.288 0.192 0.256-576.224-256.256-0.128zM799.84 800h-576.128c-35.176-0.055-63.676-28.565-63.712-63.741v-576.547c0-35.136 28.608-63.68 63.744-63.68h576.512c35.157 0.036 63.653 28.499 63.744 63.639v576.585c-0.145 35.236-28.743 63.744-63.999 63.744-0.056 0-0.113 0-0.169 0h0.009zM680.608 640h-224c-17.673 0-32-14.327-32-32s14.327-32 32-32v0h224c17.673 0 32 14.327 32 32s-14.327 32-32 32v0zM680.608 480h-224c-17.673 0-32-14.327-32-32s14.327-32 32-32v0h224c17.673 0 32 14.327 32 32s-14.327 32-32 32v0zM680.608 320h-224c-17.673 0-32-14.327-32-32s14.327-32 32-32v0h224c17.673 0 32 14.327 32 32s-14.327 32-32 32v0zM352 640c-17.673 0-32-14.327-32-32s14.327-32 32-32v0c17.673 0 32 14.327 32 32s-14.327 32-32 32v0zM352 480c-17.673 0-32-14.327-32-32s14.327-32 32-32v0c17.673 0 32 14.327 32 32s-14.327 32-32 32v0zM352 320c-17.673 0-32-14.327-32-32s14.327-32 32-32v0c17.673 0 32 14.327 32 32s-14.327 32-32 32v0z" />
<glyph unicode="&#xe90c;" glyph-name="dobi_logo" d="M220.618 545.197c-13.528 12.696-29.554 22.686-48.078 29.971s-39.128 10.823-61.398 10.823h-111.141v-285.138h111.141c22.27 0 42.667 3.746 61.398 11.031 18.524 7.285 34.55 17.483 48.078 30.179s23.935 27.889 31.22 45.164c7.285 17.483 11.031 36.215 11.031 56.195v0.833c0 20.189-3.746 38.712-11.031 55.987-7.285 17.067-17.691 32.052-31.22 44.956zM197.307 442.38c0-12.696-2.081-24.351-6.244-34.55-4.163-10.407-9.99-19.356-17.483-26.849-7.493-7.701-16.442-13.528-27.057-17.483-10.615-4.163-22.27-6.036-34.966-6.036h-48.911v171.707h48.494c12.696 0 24.351-2.081 34.966-6.244s19.564-10.198 27.057-17.691c7.493-7.701 13.32-16.65 17.483-27.265s6.244-22.062 6.244-34.55v-1.041zM566.53 547.902c-13.528 13.112-29.346 23.727-47.87 31.428s-38.712 11.655-60.774 11.655c-22.062 0-42.25-3.954-60.982-11.655-18.524-7.701-34.55-18.315-48.078-31.844s-23.935-29.138-31.636-46.829c-7.701-17.691-11.447-36.839-11.447-57.236v-0.833c0-20.397 3.746-39.545 11.239-57.236s17.899-33.301 31.428-46.413c13.528-13.112 29.346-23.727 47.87-31.428s38.712-11.655 60.774-11.655c22.062 0 42.25 3.954 60.982 11.655 18.524 7.701 34.55 18.315 48.078 31.844s23.935 29.138 31.636 46.829c7.701 17.691 11.447 36.839 11.447 57.236v0.833c0 20.397-3.746 39.545-11.239 57.236s-17.899 33.093-31.428 46.413zM543.428 442.38c0-12.28-2.081-23.727-6.244-34.341-4.163-10.823-9.99-20.189-17.483-28.306s-16.442-14.569-27.057-19.148c-10.615-4.579-22.062-6.868-34.55-6.868-12.696 0-24.351 2.289-34.758 7.076s-19.564 11.239-27.265 19.356c-7.701 8.117-13.737 17.691-17.899 28.514s-6.244 22.478-6.244 34.55v0.833c0 12.28 2.081 23.727 6.244 34.341 4.163 10.823 9.99 20.189 17.483 28.306s16.442 14.569 26.849 19.148c10.407 4.579 22.062 6.868 34.758 6.868 12.488 0 24.143-2.289 34.55-7.076 10.615-4.787 19.772-11.239 27.473-19.356s13.737-17.691 17.899-28.514c4.163-10.823 6.244-22.478 6.244-34.55v-0.833zM961.977 585.99h62.647v-285.138h-62.647v285.138zM870.608 458.198c12.072 7.493 28.93 23.727 28.93 55.987 0 43.291-34.966 68.891-93.242 68.891h-1.249v39.753h-58.693v-39.753h-84.293v-269.528h84.293v-39.753h58.693v39.753h4.995c31.844 0 56.611 6.868 73.678 20.397 17.275 13.737 26.224 33.509 26.224 58.693 0 42.25-24.976 59.317-39.337 65.561zM806.92 367.037h-86.166v164.423h77.424c17.691 0 44.124-10.615 44.124-26.433 0-23.727-21.854-28.098-28.722-28.93h-70.348v-47.662h58.485c17.691 0 47.246-3.954 47.246-30.803 0-20.189-27.057-30.595-42.042-30.595z" />
<glyph unicode="&#xe90d;" glyph-name="from_err" d="M874 810c-199.875 200-524.125 200-724 0-200-200-200-524.125 0-724.125s524.125-200 724.125 0c199.875 200 199.875 524.25-0.125 724.125zM679.5 328.75c12.875-12.875 15.125-34 3.25-47.75-6.5-7.625-16-12-26-12-9 0-17.75 3.625-24.125 10l-96.5 96.5c-13.375 13.375-34.875 13.375-48.25 0l-96.5-96.625c-6.75-6.75-16-10.375-25.5-10s-18.5 4.75-24.625 12c-11.875 13.75-9.5 34.875 3.25 47.75l95.125 95.125c13.375 13.375 13.375 34.875 0 48.25l-95.25 95.25c-12 12-14.875 31.375-5 45.125 5.875 8.25 15 13.375 25 14.25s19.875-2.75 27-9.875l96.5-96.5c13.375-13.375 34.875-13.375 48.25 0l95.25 95.25c12 12 31.375 14.875 45.125 5 8.25-5.875 13.375-15 14.25-25s-2.75-19.875-9.875-27l-96.5-96.5c-13.375-13.375-13.375-34.875 0-48.25l95.125-95z" />
<glyph unicode="&#xe90e;" glyph-name="from_succ" d="M511.785 958.924c-282.030 0-510.709-228.679-510.709-510.709s228.679-510.709 510.709-510.709 510.709 228.679 510.709 510.709c0 282.030-228.679 510.709-510.709 510.709zM754.232 571.482l-304.834-295.583c-6.454-6.239-15.059-9.681-23.879-9.681s-17.21 3.227-23.449 9.25l-132.518 124.773c-13.768 12.908-14.413 34.635-1.506 48.403s34.635 14.413 48.403 1.506l108.639-102.185 281.6 272.78c13.553 13.123 35.281 12.908 48.403-0.645 13.123-13.768 12.908-35.496-0.861-48.618z" />
<glyph unicode="&#xe90f;" glyph-name="home" d="M1006.625 459.75l-448 480c-12 12.875-29 20.25-46.75 20.25s-34.75-7.375-46.75-20.25l-201.75-216.25c-5.75-5.75-9.375-13.75-9.375-22.75 0-17.75 14.25-32 32-32 9.625 0 18.25 4.25 24 10.875l202 216.25 448-480h-128.125v-334c0-45.25-36.75-82-82-82h-110v253.375c0.125 0.875 0.125 1.75 0.125 2.75 0 17.75-14.25 32-32 32h-192.125c-17.75 0-32-14.25-32-32v-255.875h-110c-45.25 0-82 36.75-82 82v333.875h-128l88.375 94.75c6 5.75 9.75 13.875 9.75 22.875 0 17.75-14.25 32-32 32-8.625 0-16.5-3.375-22.25-9l-0.25-0.25c-0.625-0.625-1.25-1.25-1.75-1.875l-88.625-94.875c-10.375-10.875-16.25-24.875-17.125-39.25v-8.5c0.5-7.25 2.125-14.375 5.125-21.25 10.25-23.375 33.25-38.5 58.75-38.5h64v-270c0-19.75 3.875-38.75 11.5-56.75 7.375-17.375 17.875-33 31.25-46.375s29-23.875 46.375-31.25c18-7.625 37.25-11.5 56.75-11.5h110c17 0 33.25 6.75 45.25 18.75s18.75 28.25 18.75 45.25v223.75h128v-224c0-35.25 28.75-64 64-64h110c19.75 0 38.75 3.875 56.75 11.5 17.375 7.375 33 17.875 46.375 31.25s23.875 29 31.25 46.375c7.625 18 11.5 37.25 11.5 56.75v270h64c25.5 0 48.5 15.125 58.75 38.5 10.375 23.5 5.75 50.625-11.75 69.375zM193.75 568.75c8.25 0 16.375 3.125 22.625 9.375l28.25 28.25c12.5 12.5 12.5 32.75 0 45.25s-32.75 12.5-45.25 0l-28.25-28.25c-12.5-12.5-12.5-32.75 0-45.25 6.25-6.25 14.5-9.375 22.625-9.375z" />
<glyph unicode="&#xe910;" glyph-name="input_success" d="M269.653 173.653l-269.653 274.347 107.947 109.653 269.227-274.347zM377.173 64l-107.52 109.653 646.4 658.347 107.947-109.653z" />
<glyph unicode="&#xe911;" glyph-name="lang" d="M873.783 809.639c-95.176 95.176-221.312 148.211-355.619 149.787-2.15 0.717-11.754 0.717-14.047 0-133.733-2.007-259.297-54.898-354.186-149.787-94.889-95.032-147.924-220.882-149.787-354.903-0.143-0.287-0.143-0.86-0.143-1.433v-9.174c0-0.573 0.143-1.003 0.143-1.29 1.29-134.737 54.325-261.303 149.931-356.909 96.609-96.609 225.183-149.931 361.926-149.931s265.174 53.178 361.926 149.931c7.024 7.024 13.76 14.334 20.354 21.644 0.573 0.573 1.147 1.003 1.72 1.72 0.717 0.717 1.29 1.577 1.863 2.437 81.415 93.169 125.85 211.279 125.85 336.125-0.143 136.6-53.321 265.174-149.931 361.783zM390.020 896.358c-36.551-41.138-67.368-100.623-89.442-172.865-60.058 16.34-99.046 36.838-119.973 50.025 56.905 57.908 128.86 100.909 209.415 122.84zM149.071 737.971c23.077-15.48 67.942-40.708 139.18-59.915-14.907-62.065-23.937-131.583-25.514-205.689h-215.006c5.16 100.049 42.284 191.928 101.339 265.604zM149.644 157.026c-59.772 74.105-97.183 166.988-102.056 268.327h215.006c1.577-75.252 10.607-145.917 25.801-208.842-70.665-19.207-115.53-44.004-138.75-59.485zM181.178 121.478c20.927 13.187 59.772 33.541 119.686 49.738 22.074-71.812 52.748-130.867 89.156-172.004-80.269 21.931-152.081 64.788-208.842 122.267zM487.633-13.402c-41.711 12.47-82.419 56.761-114.383 125.707-9.89 21.501-18.777 44.721-26.517 69.375 39.704 7.74 86.432 13.187 140.9 14.62v-209.702zM487.633 243.315c-59.198-1.433-110.083-7.597-153.514-16.197-14.62 60.775-23.077 128-24.511 198.235h178.168v-182.038zM487.633 472.224h-178.025c1.577 69.088 9.89 135.31 24.367 195.082 43.431-8.6 94.459-14.764 153.657-16.054v-179.028zM487.633 698.267c-54.468 1.29-101.339 6.88-141.187 14.62 7.74 24.941 16.77 48.591 26.804 70.378 31.964 68.945 72.529 113.236 114.383 125.707v-210.705zM874.929 737.684c58.768-73.532 95.892-165.268 101.053-265.317h-214.862c-1.577 74.105-10.607 143.624-25.514 205.689 71.095 19.064 116.103 44.004 139.324 59.628zM843.539 773.088c-21.071-13.33-59.915-33.684-120.26-49.881-22.074 72.242-52.891 131.87-89.442 173.151 80.699-21.931 152.654-65.218 209.702-123.27zM534.647 909.402c42.284-11.897 83.422-56.475 115.673-126.137 10.177-21.787 19.064-45.438 26.947-70.522-40.134-7.74-87.436-13.33-142.62-14.477v211.135zM534.647 651.252c59.915 1.29 111.373 7.454 155.091 16.054 14.477-59.772 22.791-125.993 24.367-195.082h-179.458v179.028zM534.647 425.353h179.458c-1.433-70.092-9.89-137.317-24.654-197.805-43.718 8.6-95.176 14.764-154.947 15.91v181.895zM534.647-13.689v210.132c54.898-1.147 102.199-6.737 142.334-14.477-7.74-24.654-16.627-48.018-26.661-69.518-32.251-69.805-73.389-114.24-115.673-126.137zM633.693-0.788c36.408 40.994 67.082 100.193 89.156 172.148 59.628-16.054 98.616-36.264 119.83-49.595-56.761-57.622-128.573-100.623-208.985-122.553zM874.499 157.456c-23.507 15.624-68.372 40.421-139.037 59.485 15.194 62.782 24.224 133.303 25.657 208.412h215.006c-4.873-101.053-42.141-193.792-101.626-267.897z" />
<glyph unicode="&#xe912;" glyph-name="logout" d="M472.4 448.8v471.4c0 21.6 17.6 39.2 39.2 39.2s39.2-17.6 39.2-39.2v-471.4c0-21.6-17.6-39.2-39.2-39.2-21.6-0.2-39.2 17.4-39.2 39.2v0zM930 741.6c-34 48.8-76.6 91.4-125.2 125.4l-0.2-0.2c-17.8 11.2-41.2 6.6-53.2-10.6s-8.4-40.8 8.2-53.6c0.2-0.2 0.4-0.2 0.6-0.2 53.2-37.4 67.8-52 105.4-105.8 136.6-195.2 89-465.2-106.2-601.8-148.8-103.8-346.8-103.8-495.6-0.2-41.2 29-77.2 65-106 106.2-66 93.6-91.8 210-71.6 322.8 19.6 113 83.6 213.4 177.8 278.8 0.4 0.2 0.6 0.4 0.8 0.6l-0.2 0.2c16.6 13 20 36.8 7.6 53.8-12.4 17.2-36 21.4-53.6 9.8-0.2 0-0.2-0.2-0.4-0.4v0c-230.8-161.8-286.8-480-125-711 34-48.8 76.4-91.4 125.2-125.4 176-123 410-123 585.8 0.2 231.4 162 287.4 480.4 125.8 711.4v0z" />
<glyph unicode="&#xe913;" glyph-name="order_ok" d="M512 960c-282.77 0-512-229.23-512-512s229.23-512 512-512c282.77 0 512 229.23 512 512v0 0c0 282.77-229.23 512-512 512v0zM805.809 581.12l-333.194-330.043c-8.285-8.375-19.779-13.562-32.485-13.562-8.655 0-16.747 2.407-23.645 6.587l0.203-0.114-7.877 7.089-190.622 189.834c-6.488 7.928-10.42 18.167-10.42 29.324 0 25.667 20.807 46.474 46.474 46.474 11.157 0 21.396-3.932 29.407-10.485l-0.083 0.066 157.538-157.538 299.323 296.172c8.396 8.299 19.944 13.426 32.689 13.426 25.686 0 46.509-20.823 46.509-46.509 0-12.941-5.285-24.648-13.815-33.079l-0.004-0.004z" />
<glyph unicode="&#xe914;" glyph-name="reg_mes" d="M513.789 319.217c-17.886 0-32.196-14.309-32.196-32.196v-127.888c0-17.886 14.309-32.196 32.196-32.196s32.196 14.309 32.196 32.196v127.888c-0.447 17.886-14.756 32.196-32.196 32.196v0zM770.012 447.106v256.671c0 141.303-114.921 256.224-256.224 256.224-141.75 0-256.224-114.921-256.224-256.224v-256.671c-40.245-53.659-63.944-119.839-63.944-191.385 0-177.076 143.539-320.168 320.168-320.168s320.168 143.539 320.168 320.168c0 71.546-24.147 137.726-63.944 191.385v0zM321.509 703.776c0 105.977 85.855 192.279 192.279 192.279 105.977 0 192.279-85.855 192.279-192.279v-192.727c-53.659 40.245-119.839 64.391-192.279 64.391-71.993 0-138.62-24.147-192.279-64.391v192.727zM513.789-0.95c-141.303 0-256.224 114.921-256.224 256.224s114.921 256.224 256.224 256.224c136.831 0 256.224-119.392 256.224-256.224 0-141.303-114.921-256.224-256.224-256.224v0z" />
<glyph unicode="&#xe915;" glyph-name="reg_phone" d="M511.736 139.087c-28.73 0-52.188-23.458-52.188-52.188s23.327-52.188 52.188-52.188c28.73 0 52.188 23.327 52.188 52.188-0.132 28.862-23.458 52.188-52.188 52.188zM769.647 959.868h-515.954c-43.359 0-78.678-35.319-78.678-78.678v-865.985c0-43.49 35.319-78.678 78.678-78.678h515.954c43.359 0 78.678 35.319 78.678 78.678v865.985c0 43.359-35.319 78.678-78.678 78.678zM253.694 907.416h515.954c14.497 0 26.226-11.729 26.226-26.226v-648.797h-568.406v648.797c0 14.365 11.729 26.226 26.226 26.226zM769.647-11.021h-515.954c-14.497 0-26.226 11.729-26.226 26.226v160.255h568.537v-160.255c0-14.497-11.861-26.226-26.358-26.226z" />
<glyph unicode="&#xe916;" glyph-name="reg_pwd" d="M860.968 577.347h-32.337v63.326c1.347 176.505-141.474 319.326-317.979 319.326s-319.326-142.821-319.326-319.326v-63.326h-32.337c-35.032 0-63.326-28.295-63.326-63.326v-510.653c0-35.032 28.295-63.326 63.326-63.326h701.979c35.032 0 63.326 28.295 63.326 63.326v509.305c1.347 35.032-26.947 64.674-63.326 64.674v0zM254.653 640.674c0 141.474 114.526 256 256 256s256-114.526 256-256v-63.326h-512v63.326zM860.968 2.021h-701.979v510.653h701.979v-510.653zM510.653 384.674c-17.516 0-32.337-14.821-32.337-32.337v-191.326c0-17.516 14.821-32.337 32.337-32.337s32.337 14.821 32.337 32.337v192.674c0 17.516-14.821 30.989-32.337 30.989v0z" />
<glyph unicode="&#xe917;" glyph-name="reg_ver" d="M908.918 960h-794.369c-63.322 0-114.726-51.405-114.726-114.904v-794.191c0-63.5 51.405-114.904 114.904-114.904h794.191c63.322 0 114.904 51.405 114.904 114.904v794.191c-0.178 63.5-51.582 114.904-114.904 114.904zM952.318 828.020v-459.795h-290.996v167.91h-343.112v352.361h330.839v-227.141h62.966v227.141h179.827c33.262 0 60.476-27.036 60.476-60.476zM131.802 888.496h122.553v-415.15h77.729v-226.963h-260.936v581.636c0 33.44 27.214 60.476 60.654 60.476zM891.664 7.504h-759.862c-33.44 0-60.476 27.036-60.476 60.654v116.149h323.191v289.039h202.061v-328.705h62.966v159.372h292.953v-236.034c-0.178-33.44-27.392-60.476-60.832-60.476z" />
<glyph unicode="&#xe918;" glyph-name="trade_center" d="M475.582 241.058c0-18.995 14.139-35.419 32.991-38.132h9.426c20.566 0 35.99 15.424 35.99 35.99v78.692h117.681c20.566 0 35.99 15.424 35.99 35.99v6.427c0 20.566-15.424 35.99-35.99 35.99h-117.681v73.122h117.681c20.566 0 35.99 15.424 35.99 35.99v6.427c0 20.566-15.424 35.99-35.99 35.99h-124.394l95.83 89.975c14.567 14.567 15.567 37.275 2.571 53.128l-0.286 0.428c-15.853 15.853-40.846 16.852-55.556 2.285l-75.55-70.837-72.408 77.264c-15.996 15.996-40.846 16.852-55.556 2.142-15.853-15.853-16.852-40.846-2.285-55.556l92.403-98.687h-122.966c-20.566 0-35.99-15.424-35.99-35.99v-6.427c0-20.566 15.424-35.99 35.99-35.99h121.966v-73.122h-121.966c-20.566 0-35.99-15.424-35.99-35.99v-6.427c0-20.566 15.424-35.99 35.99-35.99h121.966v-76.693zM159.813 715.925c35.99 47.415 80.549 86.833 132.82 116.825 72.98 42.274 157.099 62.411 243.218 58.269 0.571 0 1.143 0 1.714 0 17.995 0 32.991 14.139 33.848 32.277 0.857 18.709-13.568 34.562-32.277 35.562-99.115 4.856-196.088-18.423-280.493-67.267-60.126-34.562-111.54-79.835-152.957-134.677-39.989-52.842-68.981-112.254-86.119-176.522-17.138-63.982-21.708-129.678-13.425-195.088 8.426-67.553 30.134-131.82 64.553-191.090 8.283-15.71 17.567-30.706 27.849-45.273l-34.133 6.57c-9.283 2.285-19.566 0.286-28.135-5.57-8.283-5.713-13.71-14.139-14.853-23.279v-2.142c-4.285-18.281 8.712-37.704 28.563-42.702l147.245-28.135c2.428-0.571 4.999-0.857 7.426-0.857 15.853 0 31.277 12.139 35.562 29.42l0.143 0.428v2.142c2.142 8.997 0.143 18.566-5.427 26.707-5.427 7.855-13.853 13.71-23.136 15.996l-4.57 0.857c-0.428 0.428-0.714 0.714-1.143 1.143-32.134 29.992-56.841 61.697-75.408 96.973-0.286 0.428-0.428 0.857-0.714 1.285-29.992 51.557-48.844 107.399-56.27 165.954-7.141 56.698-3.142 113.54 11.568 169.096 14.71 55.842 39.846 107.256 74.551 153.1zM1017.002 512.268c-8.569 67.695-30.277 132.249-64.839 191.661-14.71 25.279-30.849 48.415-48.558 69.98l31.563-5.998c2.428-0.571 4.999-0.857 7.569-0.857 6.712 0 13.425 2.142 19.423 6.284 7.855 5.427 13.71 13.853 15.996 23.136l0.143 0.428v2.142c2.142 8.997 0.143 18.566-5.427 26.707-5.427 7.855-13.853 13.71-23.136 15.996l-147.53 27.992c-18.281 4.57-37.989-8.426-42.988-28.421l-0.143-0.428v-2.142c-2.142-8.997-0.143-18.566 5.427-26.707 4.713-6.855 11.568-11.997 19.423-14.853 1.428-1.714 2.999-3.285 4.713-4.713 41.988-33.991 76.264-74.122 104.542-122.68 29.992-51.557 48.844-107.399 56.27-166.097 7.141-56.698 3.142-113.54-11.711-169.096-14.853-55.699-39.989-107.256-74.693-153.1-35.99-47.415-80.549-86.833-132.677-116.825l-0.286-0.143c-45.273-26.564-94.117-44.416-145.245-53.128-49.558-8.426-99.972-8.141-149.673 1-8.855 1.571-17.995-0.286-25.421-5.427s-12.425-12.854-14.139-21.851c-1.571-8.855 0.286-17.995 5.427-25.421s12.854-12.425 21.851-14.139c29.706-5.427 59.983-8.283 89.975-8.283 27.849 0 55.842 2.428 83.262 7.141 59.126 10.14 115.682 30.849 167.953 61.411 59.983 34.562 111.54 79.835 152.957 134.534 39.989 52.842 68.981 112.254 86.119 176.522 17.567 64.268 21.994 129.964 13.853 195.374z" />
<glyph unicode="&#xe919;" glyph-name="trade_center_new" d="M513.2-56.859c-31.473 0.010-62.248 2.972-92.071 8.624l3.067-0.484c-13.286 2.505-23.202 14.019-23.202 27.849 0 15.638 12.677 28.315 28.315 28.315 1.808 0 3.576-0.169 5.289-0.493l-0.176 0.028c23.665-4.588 50.879-7.213 78.707-7.213 81.141 0 157.070 22.318 221.982 61.149l-1.973-1.094 0.214 0.129c135.641 78.442 225.443 222.82 225.443 388.173 0 82.704-22.465 160.161-61.627 226.601l1.138-2.088c-28.635 49.115-63.282 89.761-105.885 124.251-6.418 5.226-10.485 13.128-10.485 21.98 0 15.619 12.661 28.28 28.28 28.28 6.767 0 12.979-2.377 17.847-6.341l-0.052 0.041c48.015-38.861 86.99-84.576 119.181-139.747 42.674-72.459 67.883-159.629 67.883-252.688 0-186.183-100.905-348.798-251.012-436.142l-2.405-1.292c-71.104-42.574-156.86-67.758-248.495-67.781h-0.007zM182.563 76.404c-0.004 0-0.008 0-0.012 0-7.459 0-14.241 2.897-19.283 7.626l0.015-0.014c-37.132 34.676-65.839 71.651-87.69 113.026-42.482 72.33-67.573 159.31-67.573 252.151 0 186.219 100.945 348.862 251.099 436.193l2.407 1.292c83.377 48.272 179.321 71.28 277.351 66.496 15.166-0.572 27.244-13.005 27.244-28.259 0-15.617-12.66-28.278-28.278-28.278-0.606 0-1.207 0.019-1.804 0.057l0.082-0.004c-87.119 4.285-172.323-16.153-246.331-58.984-135.648-78.888-225.388-223.556-225.388-389.185 0-19.535 1.248-38.778 3.67-57.655l-0.234 2.235c8.075-62.932 28.212-119.793 58.067-170.221l-1.125 2.054c0.2-0.343 0.386-0.686 0.571-1.028 18.895-35.89 43.916-68.124 76.507-98.544 5.539-5.176 8.991-12.525 8.991-20.68 0-15.617-12.66-28.278-28.278-28.278-0.008 0-0.016 0-0.023 0h0.001zM513.185-62.458c-31.828 0.029-62.937 3.026-93.089 8.73l3.114-0.49c-15.921 3.005-27.801 16.803-27.801 33.376 0 18.742 15.193 33.935 33.935 33.935 2.169 0 4.29-0.203 6.345-0.592l-0.211 0.033c23.355-4.528 50.214-7.118 77.678-7.118 80.088 0 155.031 22.028 219.101 60.355l-1.947-1.080 0.3 0.171c133.894 77.471 222.533 220.015 222.533 383.261 0 81.661-22.18 158.142-60.845 223.747l1.124-2.062c-28.292 48.558-62.497 88.647-104.557 122.694-7.52 6.269-12.27 15.639-12.27 26.119 0 18.741 15.192 33.933 33.933 33.933 7.979 0 15.315-2.754 21.109-7.363l-0.069 0.053c48.558-39.303 87.961-85.519 120.509-141.289 43.171-73.279 68.673-161.441 68.673-255.559 0-188.266-102.040-352.699-253.831-441.011l-2.432-1.307c-71.904-43.045-158.617-68.514-251.277-68.552h-0.010zM429.252 1.796c-12.477-0.023-22.582-10.142-22.582-22.622 0-11.051 7.924-20.251 18.4-22.229l0.141-0.022c26.422-5.117 56.807-8.044 87.877-8.044 90.608 0 175.401 24.897 247.911 68.223l-2.21-1.224c150.965 87.41 250.895 248.167 250.895 432.264 0 92.143-25.034 178.439-68.671 252.457l1.268-2.326c-31.82 54.556-70.38 99.772-117.839 138.19-3.852 3.137-8.82 5.037-14.232 5.037-12.495 0-22.625-10.129-22.625-22.625 0-7.084 3.255-13.407 8.352-17.555l0.041-0.033c43.131-34.919 78.207-76.064 107.213-125.793 38.345-65.13 60.995-143.479 60.995-227.119 0-167.441-90.775-313.679-225.798-392.189l-2.293-1.233c-63.779-38.24-140.72-60.855-222.944-60.855-28.179 0-55.737 2.656-82.438 7.732l2.738-0.433c-1.24 0.243-2.666 0.383-4.125 0.386h-0.002zM182.563 70.748c-0.013 0-0.028 0-0.043 0-8.945 0-17.078 3.473-23.127 9.143l0.018-0.017c-37.59 35.090-66.639 72.523-88.718 114.425-42.943 73.127-68.305 161.064-68.305 254.924 0 188.29 102.067 352.742 253.891 441.046l2.434 1.307c84.334 48.829 181.307 72.080 280.422 67.253 18.143-0.754 32.566-15.646 32.566-33.906 0-18.741-15.192-33.933-33.933-33.933-0.092 0-0.183 0-0.275 0.001h-1.657c-86.047 4.199-170.167-15.938-243.218-58.241-133.934-77.895-222.54-220.738-222.54-384.275 0-19.272 1.231-38.257 3.617-56.88l-0.231 2.206c7.97-62.13 27.85-118.267 57.324-168.053l-1.111 2.028c0.243-0.414 0.471-0.828 0.686-1.257 18.566-35.304 43.231-67.053 75.365-97.030 6.641-6.21 10.78-15.026 10.78-24.807 0-18.741-15.192-33.933-33.933-33.933-0.004 0-0.008 0-0.012 0h0.001zM513.428 948.132c-0.081 0-0.177 0-0.273 0-275.939 0-499.632-223.693-499.632-499.632 0-21.763 1.391-43.202 4.090-64.231l-0.261 2.491c8.961-69.926 31.284-133.117 64.381-189.19l-1.256 2.3 0.1-0.2c21.537-40.874 49.872-77.293 86.547-111.526 4.031-3.771 9.464-6.086 15.439-6.086 12.495 0 22.624 10.129 22.624 22.624 0 6.521-2.759 12.398-7.173 16.526l-0.013 0.012c-33.048 30.863-58.469 63.582-77.65 100.044-0.157 0.286-0.3 0.557-0.457 0.843-38.328 65.12-60.969 143.455-60.969 227.077 0 103.276 34.533 198.486 92.681 274.714l-0.807-1.103c36.956 48.494 82.236 88.546 134.023 118.633l2.167 1.162c74.922 43.374 161.184 64.039 249.416 59.74 0.328-0.017 0.713-0.027 1.1-0.027 12.497 0 22.628 10.131 22.628 22.628 0 12.11-9.513 21.998-21.474 22.599l-0.054 0.002q-12.582 0.614-25.179 0.6zM801.548 866.498l147.102-28.135c17.309-4.285 30.292-21.651 25.964-38.961v-2.214c-4.285-17.309-21.637-30.306-38.961-25.964l-147.102 28.135c-17.309 4.285-30.306 21.651-25.964 38.961v2.199c4.285 17.309 21.651 30.292 38.961 25.964zM942.566 767.011c-2.684 0.002-5.287 0.341-7.773 0.975l0.218-0.047-147.273 28.164c-9.588 2.506-17.581 8.192-22.98 15.84l-0.085 0.127c-3.924 5.375-6.279 12.114-6.279 19.403 0 2.579 0.295 5.089 0.852 7.498l-0.044-0.223v2.185l0.1 0.4c4.999 19.994 24.665 32.977 42.974 28.463l147.259-28.149c9.592-2.507 17.589-8.193 22.994-15.84l0.085-0.127c3.925-5.374 6.28-12.112 6.28-19.4 0-2.58-0.295-5.091-0.854-7.502l0.044 0.223v-2.171l-0.1-0.4c-2.507-9.592-8.193-17.589-15.84-22.994l-0.127-0.085c-5.41-3.885-12.149-6.239-19.434-6.312h-0.018zM789.294 802.744l147.259-28.149c1.816-0.446 3.901-0.703 6.046-0.703 5.847 0 11.249 1.903 15.621 5.124l-0.073-0.051c6.345 4.471 11.012 10.951 13.098 18.503l0.055 0.235v2.157l0.1 0.4c0.446 1.816 0.703 3.901 0.703 6.046 0 5.847-1.903 11.249-5.124 15.621l0.051-0.073c-4.531 6.424-11.125 11.129-18.804 13.172l-0.234 0.053-147.273 28.121c-14.653 3.67-30.477-6.898-34.747-23.165v-2.157l-0.1-0.414c-0.445-1.814-0.7-3.897-0.7-6.040 0-5.848 1.902-11.253 5.122-15.627l-0.051 0.073c4.534-6.427 11.133-11.133 18.818-13.172l0.234-0.053zM63.554 152.297l147.102-28.135c17.309-4.285 30.292-21.651 25.964-38.961v-2.099c-4.285-17.324-21.637-30.292-38.961-25.964l-147.102 28.135c-17.309 4.285-30.292 21.637-25.964 38.961v2.157c2.171 17.309 21.637 30.306 38.961 25.978zM204.429 52.925c-0.010 0-0.021 0-0.033 0-2.619 0-5.163 0.323-7.594 0.931l0.215-0.046-147.287 28.106c-19.852 4.956-32.848 24.422-28.563 42.66v2.171c1.493 9.772 7.001 18.027 14.756 23.158l0.125 0.078c5.669 4.072 12.748 6.512 20.398 6.512 2.758 0 5.442-0.317 8.018-0.917l-0.238 0.047 147.259-28.164c9.588-2.505 17.582-8.191 22.98-15.84l0.085-0.127c3.924-5.375 6.279-12.114 6.279-19.403 0-2.579-0.295-5.089-0.852-7.498l0.044 0.223v-2.171l-0.1-0.4c-4.285-17.281-19.637-29.363-35.562-29.363zM51.243 88.586l147.259-28.149c14.667-3.67 30.477 6.898 34.733 23.108v2.157l0.1 0.4c0.444 1.813 0.699 3.895 0.699 6.036 0 5.849-1.902 11.254-5.121 15.631l0.051-0.073c-4.535 6.426-11.134 11.131-18.818 13.172l-0.234 0.053-147.202 28.078c-1.887 0.447-4.054 0.703-6.281 0.703-6.22 0-11.973-1.998-16.653-5.387l0.083 0.057c-6.251-4.095-10.654-10.569-11.932-18.107l-0.022-0.159v-2.371l-0.1-0.4c-3.685-14.753 7.027-30.677 23.408-34.819zM486.293 213.066c-9.526 0-16.824 2.485-21.68 7.398-3.303 3.25-5.395 7.723-5.541 12.684l-0.001 0.027-0.086 33.862h-91.674c-9.24 0.628-26.735 7.141-26.735 27.135s17.481 26.578 26.735 27.135h27.578v279.393h-27.364c-9.269 0.543-26.807 6.941-26.807 27.207s17.538 26.664 26.807 27.207h91.403v25.122c0 1.657 0.129 12.111 7.612 19.78 3.342 3.428 9.455 7.512 19.609 7.512s16.267-4.085 19.609-7.512c7.484-7.669 7.626-18.124 7.612-19.78v-25.079h62.94c19.883-0.594 38.589-4.987 55.628-12.472l-0.958 0.375c25.55-11.325 56.013-35.604 56.013-86.876 0-49.315-22.494-73.779-38.389-84.891 7.182-3.429 13.372-7.417 18.986-12.074l-0.149 0.12c15.71-12.968 34.419-37.832 34.419-82.663 0-38.675-17.252-69.552-49.9-89.247-26.578-16.053-55.884-20.323-69.009-20.323h-69.409v-26.764c0-1.171-0.143-12.025-7.926-19.866-4.784-4.827-11.454-7.412-19.323-7.412zM566.271 319.422h0.186c0.086 0 0.914 0 2.328 0 5.713 0 25.707 0.671 43.516 9.34 21.066 10.297 31.763 28.264 31.763 53.385 0 50.743-50.115 57.255-93.774 57.255h-97.773v-119.967zM565.585 492.616c7.712 0 34.119 1.285 50.272 17.766 9.397 9.597 13.996 23.079 13.653 40.089-0.943 45.702-46.073 49.315-59.898 49.315-1.285 0-2.042 0-2.142 0h-114.954v-107.113zM486.221 700.372c20.58 0 20.080-20.080 20.080-20.080v-32.291h70.080s103.543 0 103.543-91.832c0-70.309-48.772-86.247-48.772-86.247s63.654-11.84 63.654-93.26c0-85.119-86.604-102.443-111.769-102.443h-76.636v-33.905s0.129-20.109-20.109-20.109-20.080 12.854-20.080 12.854l-0.1 41.089h-98.358s-20.080 1.428-20.080 20.080 20.080 20.166 20.080 20.166h34.276v293.447h-34.133s-20.080 1.185-20.080 20.080 20.080 20.080 20.080 20.080h98.201v32.291s-0.5 20.080 20.080 20.080zM445.333 485.475h120.152c16.524 0 72.294 4.927 71.052 65.139-1.085 53.228-54.642 56.313-67.038 56.313-1.628 0-2.542 0-2.542 0h-121.58v-121.395zM445.376 312.338h120.652s0.971 0 2.714 0c14.51 0 82.406 3.542 82.406 69.866 0 61.926-66.867 64.396-100.915 64.396h-104.856v-134.248zM486.221 714.74c-12.654 0-20.423-5.256-24.722-9.669-9.255-9.483-9.683-21.851-9.64-24.822v-17.881h-84.676c-13.482-0.8-33.519-10.597-33.519-34.276s19.994-33.548 33.519-34.276h20.566v-265.14h-20.923c-5.858-0.544-11.219-2.215-16.019-4.794l0.223 0.11c-11.354-6.098-17.552-16.667-17.552-29.677s6.241-23.593 17.595-29.649c4.577-2.47 9.938-4.141 15.629-4.672l0.166-0.013h85.076v-26.793c0.203-6.917 3.073-13.126 7.612-17.667v0c6.255-6.355 15.31-9.597 26.735-9.597 12.368 0 20.080 5.141 24.365 9.469 9.512 9.583 9.997 22.265 9.997 24.922v19.637h62.368c13.868 0 44.773 4.499 72.694 21.423 34.919 20.994 53.371 53.971 53.371 95.288 0 47.615-20.123 74.265-37.018 88.175-3.129 2.602-6.602 5.119-10.236 7.404l-0.404 0.237c1.428 1.342 2.956 2.856 4.442 4.285 12.925 13.539 28.335 38.304 28.335 79.349 0 24.108-6.412 44.859-19.038 61.669-9.997 13.396-23.936 24.079-41.217 31.734-16.936 7.477-36.635 12.093-57.339 12.705l-0.231 0.005h-55.813v17.952c0 2.971-0.386 15.339-9.64 24.822-4.285 4.413-12.082 9.669-24.722 9.669zM567.827 592.688s0.643 0 1.728 0c4.17 0 18.78-0.486 31.42-6.727 13.996-6.884 20.966-18.566 21.308-35.59 0.314-15.21-3.485-26.65-11.611-34.933-14.196-14.496-38.161-15.624-45.159-15.624h-105.856v92.831h108.17zM459.657 432.204h90.575c60.726 0 86.633-14.982 86.633-50.115 0-22.494-9.083-37.861-27.749-46.973-16.367-7.998-35.047-8.569-40.374-8.569-1.271 0-1.999 0-1.999 0h-107.113v105.685z" />
<glyph unicode="&#xe91a;" glyph-name="updownArrow" d="M464.573-13.878c-0.007 0.317-0.011 0.691-0.011 1.066 0 27.384 22.199 49.583 49.583 49.583s49.583-22.199 49.583-49.583c0-27.001-21.582-48.961-48.437-49.57l-0.057-0.001c-0.161-0.002-0.351-0.003-0.542-0.003-26.898 0-48.738 21.653-49.041 48.48v0.029zM464.573 177.448c-0.007 0.317-0.011 0.691-0.011 1.066 0 27.384 22.199 49.583 49.583 49.583s49.583-22.199 49.583-49.583c0-27.001-21.582-48.961-48.437-49.57l-0.057-0.001c-0.161-0.002-0.351-0.003-0.542-0.003-26.898 0-48.738 21.653-49.041 48.48v0.029zM464.573 368.775c-0.007 0.317-0.011 0.691-0.011 1.066 0 27.384 22.199 49.583 49.583 49.583s49.583-22.199 49.583-49.583c0-27.001-21.582-48.961-48.437-49.57l-0.057-0.001c-0.161-0.002-0.351-0.003-0.542-0.003-26.898 0-48.738 21.653-49.041 48.48v0.029zM464.573 560.101c-0.007 0.317-0.011 0.691-0.011 1.066 0 27.384 22.199 49.583 49.583 49.583s49.583-22.199 49.583-49.583c0-27.001-21.582-48.961-48.437-49.57l-0.057-0.001c-0.161-0.002-0.351-0.003-0.542-0.003-26.898 0-48.738 21.653-49.041 48.48v0.029zM480.202 952.994l-309.356-301.811c-5.082-6.927-8.132-15.621-8.132-25.027 0-13.997 6.754-26.416 17.181-34.177l0.113-0.081c8.366-10.422 21.104-17.036 35.388-17.036 9.53 0 18.372 2.944 25.666 7.973l-0.152-0.099 266.24 258.695 265.701-258.695c7.142-4.93 15.984-7.874 25.514-7.874 14.283 0 27.022 6.615 35.319 16.948l0.069 0.088c10.744 7.826 17.647 20.365 17.647 34.515 0 9.294-2.978 17.893-8.032 24.894l0.086-0.125-309.895 301.811c-7.589 5.055-16.917 8.066-26.947 8.066s-19.358-3.011-27.128-8.179l0.18 0.113z" />
<glyph unicode="&#xe91b;" glyph-name="user_close" d="M299.636 245.527c10.473-10.473 27.636-10.473 38.109 0l174.255 174.255 174.255-174.255c10.473-10.473 27.636-10.473 38.109 0s10.473 27.636 0 38.109l-174.255 174.255 174.255 174.255c10.473 10.473 10.473 27.636 0 38.109s-27.636 10.473-38.109 0l-174.255-174.255-174.255 174.255c-10.473 10.473-27.345 10.473-38.109 0-10.473-10.473-10.473-27.636 0-38.109l174.255-174.255-174.255-174.255c-10.473-10.764-10.473-27.636 0-38.109v0zM1022.255 448.873c0 281.891-228.364 510.255-510.255 510.255-282.182 0-510.545-228.364-510.545-510.255s228.364-510.255 510.255-510.255c115.782 0 221.673 39.273 307.2 104.145 3.491 4.073 5.818 9.018 5.818 14.836 0 12.509-10.182 22.691-22.691 22.691-6.4 0-12.218-2.618-16.291-6.982h-0.291c-76.509-56.436-170.764-90.182-273.164-90.182-255.127 0-462.255 206.836-462.255 462.255 0 255.127 206.836 462.255 462.255 462.255 255.127 0 462.255-206.836 462.255-462.255 0-77.964-18.327-151.273-52.364-215.855v-0.291c-0.582-2.036-1.455-4.364-1.455-6.691 0-12.509 10.182-22.691 22.691-22.691 9.6 0 17.745 6.109 20.945 14.836v-0.291c36.364 70.4 57.891 150.109 57.891 234.473v0z" />
<glyph unicode="&#xe91d;" glyph-name="user_icon" d="M512 960c-75.25 0-148-15.875-215.5-47.625-12.75-6.125-18.375-21-12.25-33.75s21-18.375 33.75-12.25c60.875 28.125 126.5 42.5 194 42.5 254 0 460.75-206.875 460.75-460.75 0-93.75-28.125-181.25-76.75-254.5-66.625 84.5-158.25 144.375-260.625 170.5 64.5 41 107 112.625 107 194.5 0 127-103.375 230.375-230.375 230.375s-230.375-103.375-230.375-230.375c0-82.375 43.5-154.625 108.5-195.625-102.375-27.125-194-87.5-259.625-173-50.125 73.625-79.25 162.75-79.25 258 0 71.625 15.875 139.75 47.125 203.75 6.125 12.75 1 28.125-11.75 34.25s-28.125 1-34.25-11.75c-34.5-70.625-52.375-146.875-52.375-226.25 0-282.125 229.875-512 512-512s512 229.875 512 512c0 282.125-229.875 512-512 512v0zM332.75 558.625c0 98.875 80.375 179.25 179.25 179.25 98.75 0 179.25-80.375 179.25-179.25s-80.375-179.25-179.25-179.25c-98.875 0-179.25 80.375-179.25 179.25v0zM512-12.75c-139.75 0-264.75 62.5-349.125 160.75 81.375 113.125 211.5 180.25 351.75 180.25 138.75 0 267.75-66 349.75-177.125-84.625-99.875-211.125-163.875-352.375-163.875v0zM957.5 111.25c9.625 0 9.625 15 0 15s-9.625-15 0-15v0z" />
<glyph unicode="&#xe91e;" glyph-name="user_login_password" d="M860.968 577.347h-32.337v63.326c0 176.505-142.821 319.326-319.326 319.326s-319.326-142.821-319.326-319.326v-63.326h-32.337c-35.032 0-63.326-28.295-63.326-63.326v-510.653c0-35.032 28.295-63.326 63.326-63.326h701.979c35.032 0 63.326 28.295 63.326 63.326v509.305c1.347 35.032-26.947 64.674-61.979 64.674v0zM253.305 640.674c0 141.474 114.526 256 256 256s256-114.526 256-256v-63.326h-512v63.326zM860.968 2.021h-703.326v510.653h701.979v-510.653zM509.305 386.021c-17.516 0-32.337-14.821-32.337-32.337v-191.326c0-17.516 14.821-32.337 32.337-32.337s32.337 14.821 32.337 32.337v191.326c0 17.516-14.821 32.337-32.337 32.337v0z" />
<glyph unicode="&#xe91f;" glyph-name="user_pay_password" d="M860.968 577.347h-32.337v63.326c0 176.505-142.821 319.326-319.326 319.326s-319.326-142.821-319.326-319.326v-63.326h-32.337c-35.032 0-63.326-28.295-63.326-63.326v-510.653c0-35.032 28.295-63.326 63.326-63.326h701.979c35.032 0 63.326 28.295 63.326 63.326v509.305c1.347 35.032-26.947 64.674-61.979 64.674v0zM253.305 640.674c0 141.474 114.526 256 256 256s256-114.526 256-256v-63.326h-512v63.326zM860.968 2.021h-703.326v510.653h701.979v-510.653z" />
<glyph unicode="&#xe920;" glyph-name="user_phone" d="M511.736 139.087c-28.73 0-52.188-23.458-52.188-52.188s23.327-52.188 52.188-52.188c28.73 0 52.188 23.327 52.188 52.188-0.132 28.862-23.458 52.188-52.188 52.188zM769.647 959.868h-515.954c-43.359 0-78.678-35.319-78.678-78.678v-865.985c0-43.49 35.319-78.678 78.678-78.678h515.954c43.359 0 78.678 35.319 78.678 78.678v865.985c0 43.359-35.319 78.678-78.678 78.678zM253.694 907.416h515.954c14.497 0 26.226-11.729 26.226-26.226v-648.797h-568.406v648.797c0 14.365 11.729 26.226 26.226 26.226zM769.647-11.021h-515.954c-14.497 0-26.226 11.729-26.226 26.226v160.255h568.537v-160.255c0-14.497-11.861-26.226-26.358-26.226z" />
<glyph unicode="&#xe921;" glyph-name="user_real_name" d="M862.618-23.040h-698.778c-90.112 0-163.84 91.75-163.84 204.8v532.48c0 113.050 72.909 204.8 163.84 204.8h698.778c90.112 0 163.84-91.75 163.84-204.8v-532.48c0-113.050-73.728-204.8-163.84-204.8v0zM982.221 714.24c0 82.739-54.067 149.914-119.603 149.914h-698.778c-66.355 0-120.422-67.174-120.422-149.914v-532.48c0-82.739 54.067-149.914 119.603-149.914h698.778c66.355 0 119.603 67.174 119.603 149.914v532.48zM457.933 624.947h-277.709c-12.288 0-22.118 12.288-22.118 27.853 0 14.746 9.83 27.853 22.118 27.853h278.528c12.288 0 22.118-12.288 22.118-27.853-0.819-15.565-10.65-27.853-22.938-27.853v0zM457.933 425.882h-277.709c-12.288 0-22.118 12.288-22.118 27.853s9.83 27.853 22.118 27.853h278.528c12.288 0 22.118-12.288 22.118-27.853-0.819-14.746-10.65-27.853-22.938-27.853v0zM457.933 227.635h-277.709c-12.288 0-22.118 12.288-22.118 27.853 0 14.746 9.83 27.853 22.118 27.853h278.528c12.288 0 22.118-12.288 22.118-27.853-0.819-15.565-10.65-27.853-22.938-27.853v0zM900.301 207.974c0-15.565-9.83-27.853-22.118-27.853s-22.118 12.288-22.118 27.853c0 104.038-67.174 188.416-149.914 188.416s-149.914-84.378-149.914-188.416c0-15.565-9.83-27.853-22.118-27.853s-22.118 12.288-22.118 27.853c0 108.954 57.344 199.885 135.987 231.014-42.598 27.034-72.090 81.92-72.090 145.818 0 90.112 58.163 163.021 130.253 163.021s130.253-73.728 130.253-163.021c0-63.898-29.491-118.784-72.090-145.818 78.643-31.949 135.987-122.88 135.987-231.014v0zM792.986 583.987c0 59.802-38.502 108.134-86.016 108.134s-86.016-48.333-86.016-108.134c0-59.802 38.502-108.134 86.016-108.134s86.016 48.333 86.016 108.134v0z" />
<glyph unicode="&#xe922;" glyph-name="user_setpwd" d="M506.348 595.584c-74.829 0-135.637-60.808-135.637-135.637s60.808-135.637 135.637-135.637c14.88 0 29.474 2.432 43.352 7.011 11.875 4.006 18.171 16.883 14.165 28.758s-16.883 18.171-28.758 14.308c-9.3-3.148-19.029-4.722-28.901-4.722-49.791 0-90.281 40.491-90.281 90.281s40.491 90.281 90.281 90.281c49.791 0 90.281-40.491 90.281-90.281 0-6.725-0.715-13.163-2.146-19.602-0.715-3.005-1.574-6.009-2.432-9.014-4.006-11.875 2.432-24.752 14.308-28.615 12.018-4.006 24.752 2.432 28.758 14.308 1.431 4.435 2.718 9.014 3.72 13.592 2.146 9.443 3.148 19.315 3.148 29.331 0.143 74.686-60.665 135.637-135.494 135.637zM740.708 595.154c-7.726 13.306-12.448 27.757-14.308 42.637-2.575 21.462 1.002 43.638 10.874 63.669 4.578 9.443 2.289 20.746-5.723 27.471-30.905 25.897-66.101 46.214-104.875 60.378-9.872 3.577-20.889 0-26.612-8.728-21.032-31.334-56.086-50.077-93.715-50.077s-72.683 18.743-93.715 50.077c-5.866 8.728-16.883 12.305-26.612 8.728-38.774-14.165-73.971-34.481-104.875-60.378-8.012-6.725-10.445-18.028-5.723-27.471 9.872-20.031 13.592-42.208 10.874-63.669-1.86-14.737-6.582-29.331-14.308-42.637-15.023-26.040-39.775-44.783-68.248-52.366-7.154-1.86-14.451-3.148-21.891-3.72-10.445-0.715-19.029-8.442-20.889-18.743-3.148-18.314-5.008-35.483-5.437-52.223v-16.311c0.429-16.74 2.289-33.909 5.437-52.366 1.86-10.302 10.445-18.028 20.889-18.743 7.44-0.572 14.88-1.717 21.891-3.72 28.615-7.726 53.225-26.326 68.248-52.366 18.886-32.621 20.174-72.397 3.434-106.306-4.578-9.443-2.146-20.746 5.723-27.471 30.905-25.897 66.101-46.214 104.875-60.235 9.729-3.577 20.746 0 26.612 8.728 21.032 31.334 55.943 50.077 93.572 50.077s72.683-18.743 93.572-50.077c4.292-6.438 11.446-10.015 18.886-10.015 2.575 0 5.294 0.429 7.726 1.431 38.774 14.165 73.971 34.481 104.875 60.235 8.012 6.725 10.445 18.028 5.723 27.471-16.74 33.909-15.452 73.685 3.434 106.306s52.509 53.511 90.138 56.086c10.445 0.715 19.029 8.442 20.889 18.743 3.72 21.318 5.58 41.206 5.58 60.521s-1.86 39.060-5.58 60.378c-1.86 10.302-10.445 18.028-20.889 18.743-37.343 2.289-71.109 23.322-89.852 55.943zM811.817 459.947c0-11.732-0.858-23.751-2.432-36.341-45.212-8.298-84.844-36.055-108.023-76.403v0c-23.322-40.348-27.471-88.421-12.018-131.917-19.315-14.451-40.348-26.469-62.954-36.055-29.76 35.054-73.398 55.371-120.041 55.371-46.5 0-90.281-20.46-120.041-55.371-22.606 9.586-43.638 21.748-62.954 36.055 15.452 43.352 11.303 91.569-12.018 131.917-23.178 40.205-62.525 67.675-107.594 76.26-0.143 0-0.429 0.143-0.572 0.143-1.574 12.591-2.432 24.609-2.432 36.341 0 11.589 0.715 23.608 2.432 36.198 0.143 0 0.429 0.143 0.572 0.143 45.069 8.442 84.415 36.055 107.594 76.26 11.732 20.317 18.6 42.637 20.603 65.243 2.003 22.32-0.858 45.069-8.585 66.674 19.315 14.451 40.348 26.469 62.811 36.055 29.903-35.054 73.541-55.514 120.184-55.514s90.281 20.46 120.184 55.514c22.606-9.586 43.638-21.748 62.811-36.055-7.726-21.605-10.445-44.354-8.585-66.674 2.003-22.606 8.871-44.926 20.603-65.243 23.322-40.348 62.811-67.961 108.166-76.403 1.574-12.734 2.289-24.609 2.289-36.198zM512.072 960c-282.863 0-512.072-229.209-512.072-512.072s229.209-512.072 512.072-512.072c278.284 0 504.775 222.055 511.785 498.622v26.755c-7.011 276.71-233.501 498.765-511.785 498.765zM512.072 9.112c-242.372 0-438.816 196.444-438.816 438.816s196.444 438.816 438.816 438.816c242.372 0 438.816-196.444 438.816-438.816s-196.444-438.816-438.816-438.816z" />
<glyph unicode="&#xe923;" d="M512 960c-282.724 0-512-229.276-512-512s229.276-512 512-512 512 229.276 512 512-229.276 512-512 512zM450.435 251.192l-222.033 222.033 48.453 48.453 173.58-173.58 296.835 296.835 48.453-48.453-345.288-345.288z" />
<glyph unicode="&#xe924;" d="M450.435 347.973l-173.58 173.705-48.453-48.453 222.033-222.033 345.163 345.163-48.453 48.453z" />
<glyph unicode="&#xe925;" glyph-name="user_warin" d="M429.802 302.276h146.367v-146.081h-146.367v146.081zM429.802 741.665h146.367v-391.458h-146.367v391.458zM512.072 960c-282.863 0-512.072-229.209-512.072-512.072s229.209-512.072 512.072-512.072c278.284 0 504.775 222.055 511.785 498.622v26.755c-7.011 276.71-233.501 498.765-511.785 498.765zM512.072 9.112c-242.372 0-438.816 196.444-438.816 438.816s196.444 438.816 438.816 438.816c242.372 0 438.816-196.444 438.816-438.816s-196.444-438.816-438.816-438.816z" />
<glyph unicode="&#xe926;" glyph-name="exclamation-outline" d="M150.016 98.816c-96.436 93.233-156.308 223.762-156.308 368.276 0 282.77 229.23 512 512 512 144.514 0 275.043-59.872 368.137-156.164l0.138-0.144c88.925-91.979 143.724-217.436 143.724-355.692 0-282.77-229.23-512-512-512-138.256 0-263.713 54.799-355.836 143.863l0.144-0.138zM801.792 171.008c74.164 74.164 120.036 176.621 120.036 289.792 0 226.342-183.486 409.828-409.828 409.828-113.171 0-215.628-45.872-289.792-120.036v0c-74.164-74.164-120.036-176.621-120.036-289.792 0-226.342 183.486-409.828 409.828-409.828 113.171 0 215.628 45.872 289.792 120.036v0zM460.8 716.8h102.4v-307.2h-102.4v307.2zM460.8 307.2h102.4v-102.4h-102.4v102.4z" />
<glyph unicode="&#xe927;" glyph-name="view-show" d="M10.24 460.8c95.226 183.898 284.070 307.405 501.76 307.405s406.534-123.507 500.282-304.271l1.478-3.134c-95.226-183.898-284.070-307.405-501.76-307.405s-406.534 123.507-500.282 304.271l-1.478 3.134zM512 256c113.108 0 204.8 91.692 204.8 204.8s-91.692 204.8-204.8 204.8v0c-113.108 0-204.8-91.692-204.8-204.8s91.692-204.8 204.8-204.8v0zM512 358.4c-56.554 0-102.4 45.846-102.4 102.4s45.846 102.4 102.4 102.4v0c56.554 0 102.4-45.846 102.4-102.4s-45.846-102.4-102.4-102.4v0z" />
</font>
</defs>
</svg>
