<svg id="图层_1" data-name="图层 1" xmlns="http://www.w3.org/2000/svg" xmlns:xlink="http://www.w3.org/1999/xlink" viewBox="0 0 712.92 718.8"><defs><style>.cls-1{fill:none;}.cls-2{clip-path:url(#clip-path);}.cls-3{fill:#f5b617;}.cls-4{clip-path:url(#clip-path-2);}</style><clipPath id="clip-path"><rect class="cls-1" x="0.12" width="712.8" height="718.8"/></clipPath><clipPath id="clip-path-2"><rect class="cls-1" width="712.92" height="718.8"/></clipPath></defs><title>返回-01</title><g class="cls-2"><path class="cls-3" d="M684.36,383.21a33.59,33.59,0,0,0-39,27.17c-19.91,111.47-103.52,202-213,230.68C277,681.81,117.52,588.55,76.77,433.21S129.33,118.3,284.69,77.58A291.27,291.27,0,0,1,640.27,285.47a33.61,33.61,0,1,0,65-17A358.46,358.46,0,0,0,267.65,12.57C76.44,62.68-38.36,259,11.75,450.25c42.18,160.84,187.81,267.59,346.8,267.59a357.69,357.69,0,0,0,90.84-11.76C584.13,670.8,687,559.37,711.53,422.2a33.6,33.6,0,0,0-27.17-39"/></g><g class="cls-4"><path class="cls-3" d="M558.1,359.34a33.61,33.61,0,0,0-33.61-33.61H296.15l96.64-96.64a33.6,33.6,0,0,0-47.52-47.52L191.6,335.23c-.12.12-.27.2-.39.32a33.67,33.67,0,0,0,0,47.58c.07.07.14.11.21.17L345.27,537.11a33.61,33.61,0,1,0,47.52-47.53l-96.65-96.64H524.49a33.61,33.61,0,0,0,33.61-33.61"/></g></svg>