<?xml version="1.0" encoding="utf-8"?>
<!-- Generator: Adobe Illustrator 21.0.0, SVG Export Plug-In . SVG Version: 6.00 Build 0)  -->
<svg version="1.1" id="图层_1" xmlns="http://www.w3.org/2000/svg" xmlns:xlink="http://www.w3.org/1999/xlink" x="0px" y="0px"
	 viewBox="0 0 475.4 475.9" style="enable-background:new 0 0 475.4 475.9;" xml:space="preserve">
<style type="text/css">
	.st0{clip-path:url(#SVGID_2_);fill:#169D71;}
</style>
<g>
	<defs>
		<rect id="SVGID_1_" x="0.1" width="475.3" height="475.9"/>
	</defs>
	<clipPath id="SVGID_2_">
		<use xlink:href="#SVGID_1_"  style="overflow:visible;"/>
	</clipPath>
	<path class="st0" d="M237.4,0.5C106.3,0.5,0,106.8,0,237.9C0,369,106.3,475.3,237.4,475.3S474.8,369,474.8,237.9
		C474.8,106.8,368.5,0.5,237.4,0.5 M350.1,180.6L208.4,318c-3,2.9-7,4.5-11.1,4.5c-4.1,0-8-1.5-10.9-4.3l-61.6-58
		c-6.4-6-6.7-16.1-0.7-22.5c6-6.4,16.1-6.7,22.5-0.7l50.5,47.5L328,157.7c6.3-6.1,16.4-6,22.5,0.3
		C356.6,164.4,356.5,174.5,350.1,180.6"/>
</g>
</svg>
