<?xml version="1.0" encoding="utf-8"?>
<!-- Generator: Adobe Illustrator 22.0.1, SVG Export Plug-In . SVG Version: 6.00 Build 0)  -->
<svg version="1.1" id="图层_1" xmlns="http://www.w3.org/2000/svg" xmlns:xlink="http://www.w3.org/1999/xlink" x="0px" y="0px"
	 viewBox="0 0 714.1 714.4" style="enable-background:new 0 0 714.1 714.4;" xml:space="preserve">
<style type="text/css">
	.st0{display:none;}
	.st1{display:inline;fill:none;}
	.st2{fill:none;}
	.st3{fill:#FFFFFF;}
</style>
<g class="st0">
	<path class="st1" d="M251.9,492.8c30.2-6,65.8-10.3,107.1-11.3V354.6H234.7C235.8,403.6,241.7,450.5,251.9,492.8z"/>
	<path class="st1" d="M279.2,572.9c22.3,48.1,50.6,79,79.8,87.7V514.3c-38,0.9-70.6,4.8-98.3,10.2
		C266.1,541.7,272.3,557.9,279.2,572.9z"/>
	<path class="st1" d="M234.7,321.9H359V197c-41.4-0.9-77-5.2-107.2-11.2C241.7,227.5,235.9,273.7,234.7,321.9z"/>
	<path class="st1" d="M145.1,566.5c39.6,40.2,89.7,70.1,145.7,85.3c-25.4-28.6-46.8-69.9-62.2-120
		C186.8,543.2,159.8,557.3,145.1,566.5z"/>
	<path class="st1" d="M219.8,178.3c-49.7-13.4-81-31-97.1-41.8C81.6,187.9,55.7,252,52,321.9h150
		C203.1,270.1,209.4,221.6,219.8,178.3z"/>
	<path class="st1" d="M290.8,26c-56.2,15.3-106.3,45.3-146,85.7c14.6,9.2,41.7,23.5,83.7,34.9C243.9,96.2,265.3,54.7,290.8,26z"/>
	<path class="st1" d="M202,354.6H52c3.4,70.7,29.5,135.4,71.1,187.2c16.2-10.8,47.5-28.2,96.9-41.5C209.4,456.4,203,407.2,202,354.6
		z"/>
	<path class="st1" d="M279.2,104.9c-7,15.2-13.3,31.6-18.7,49.1c27.8,5.4,60.5,9.3,98.5,10.2v-147
		C329.9,25.9,301.5,56.8,279.2,104.9z"/>
	<path class="st2" d="M472.5,104.9c-22.5-48.6-51.3-79.7-80.7-88v147.4c38.5-0.8,71.5-4.7,99.5-10.1
		C485.8,136.6,479.5,120.2,472.5,104.9z"/>
	<path class="st2" d="M460.9,651.9c56.1-15.3,106.2-45.2,145.9-85.5c-14.8-9.3-42-23.3-83.6-34.6
		C507.7,581.9,486.3,623.2,460.9,651.9z"/>
	<path class="st2" d="M549.7,354.6c-1.1,52.4-7.4,101.6-17.9,145.4c49.3,13.3,80.7,30.6,97,41.5c41.5-51.7,67.5-116.4,70.9-186.9
		H549.7z"/>
	<path class="st2" d="M549.7,321.9h150c-3.6-69.8-29.4-133.8-70.5-185.1c-16.3,10.9-47.7,28.3-97.3,41.6
		C542.3,221.6,548.6,270.2,549.7,321.9z"/>
	<path class="st2" d="M491,524.4c-28-5.4-61-9.3-99.3-10.1v146.7c29.5-8.3,58.2-39.4,80.7-88C479.4,557.9,485.6,541.6,491,524.4z"/>
	<path class="st2" d="M607.2,112c-39.8-40.5-90-70.7-146.3-86c25.6,28.8,47,70.3,62.4,120.8C565.4,135.5,592.6,121.2,607.2,112z"/>
	<path class="st2" d="M500,185.8c-30.5,6.1-66.4,10.4-108.2,11.2v124.8h125.2C515.8,273.7,510,227.5,500,185.8z"/>
	<path class="st2" d="M517,354.6H391.7v126.9c41.7,0.8,77.6,5.1,108.1,11.1C510,450.4,515.9,403.5,517,354.6z"/>
</g>
<path class="st3" d="M609.6,104.9C543.2,38.5,455.2,1.5,361.5,0.4c-1.5-0.5-8.2-0.5-9.8,0c-93.3,1.4-180.9,38.3-247.1,104.5
	C38.4,171.2,1.4,259,0.1,352.5c-0.1,0.2-0.1,0.6-0.1,1v6.4c0,0.4,0.1,0.7,0.1,0.9C1,454.8,38,543.1,104.7,609.8
	c67.4,67.4,157.1,104.6,252.5,104.6c95.4,0,185-37.1,252.5-104.6c4.9-4.9,9.6-10,14.2-15.1c0.4-0.4,0.8-0.7,1.2-1.2
	c0.5-0.5,0.9-1.1,1.3-1.7c56.8-65,87.8-147.4,87.8-234.5C714.1,262,677,172.3,609.6,104.9z M272.1,44.4
	c-25.5,28.7-47,70.2-62.4,120.6c-41.9-11.4-69.1-25.7-83.7-34.9C165.7,89.7,215.9,59.7,272.1,44.4z M104,154.9
	c16.1,10.8,47.4,28.4,97.1,41.8c-10.4,43.3-16.7,91.8-17.8,143.5h-150C36.9,270.4,62.8,206.3,104,154.9z M104.4,560.2
	C62.7,508.5,36.6,443.7,33.2,373h150c1.1,52.5,7.4,101.8,18,145.7C151.9,532.1,120.6,549.4,104.4,560.2z M126.4,585
	c14.6-9.2,41.7-23.4,83.5-34.7c15.4,50.1,36.8,91.3,62.2,120C216.1,655,166,625.1,126.4,585z M340.2,679.1
	c-29.1-8.7-57.5-39.6-79.8-87.7c-6.9-15-13.1-31.2-18.5-48.4c27.7-5.4,60.3-9.2,98.3-10.2V679.1z M340.2,500
	c-41.3,1-76.8,5.3-107.1,11.3C222.9,468.9,217,422,216,373h124.3V500z M340.2,340.3H216c1.1-48.2,6.9-94.4,17-136.1
	c30.3,6,65.9,10.3,107.2,11.2V340.3z M340.2,182.6c-38-0.9-70.7-4.8-98.5-10.2c5.4-17.4,11.7-33.9,18.7-49.1
	c22.3-48.1,50.6-79,79.8-87.7V182.6z M610.4,155.1c41,51.3,66.9,115.3,70.5,185.1H531c-1.1-51.7-7.4-100.2-17.8-143.5
	C562.8,183.4,594.2,166,610.4,155.1z M588.5,130.4c-14.7,9.3-41.8,23.5-83.9,34.8c-15.4-50.4-36.9-92-62.4-120.8
	C498.5,59.7,548.7,89.9,588.5,130.4z M373,35.3c29.5,8.3,58.2,39.4,80.7,88c7.1,15.2,13.3,31.7,18.8,49.2c-28,5.4-61,9.3-99.5,10.1
	V35.3z M373,215.4c41.8-0.9,77.7-5.2,108.2-11.2c10.1,41.7,15.9,87.9,17,136.1H373V215.4z M373,373h125.2c-1,48.9-6.9,95.8-17.2,138
	c-30.5-6-66.4-10.3-108.1-11.1V373z M373,679.3V532.7c38.3,0.8,71.3,4.7,99.3,10.1c-5.4,17.2-11.6,33.5-18.6,48.5
	C431.2,640,402.5,671,373,679.3z M442.1,670.3c25.4-28.6,46.8-69.9,62.2-120.1c41.6,11.2,68.8,25.3,83.6,34.6
	C548.3,625,498.2,655,442.1,670.3z M610.1,559.9c-16.4-10.9-47.7-28.2-97-41.5c10.6-43.8,16.9-93,17.9-145.4h150
	C677.6,443.5,651.6,508.2,610.1,559.9z"/>
</svg>
