<?xml version="1.0" encoding="utf-8"?>
<!-- Generator: Adobe Illustrator 22.0.1, SVG Export Plug-In . SVG Version: 6.00 Build 0)  -->
<svg version="1.1" id="图层_1" xmlns="http://www.w3.org/2000/svg" xmlns:xlink="http://www.w3.org/1999/xlink" x="0px" y="0px"
	 viewBox="0 0 125.3 115" style="enable-background:new 0 0 125.3 115;" xml:space="preserve">
<path d="M105.3,115H20c-11,0-20-11.2-20-25V25C0,11.2,8.9,0,20,0h85.3c11,0,20,11.2,20,25V90C125.3,103.8,116.3,115,105.3,115
	L105.3,115z M119.9,25c0-10.1-6.6-18.3-14.6-18.3H20C11.9,6.7,5.3,14.9,5.3,25V90c0,10.1,6.6,18.3,14.6,18.3h85.3
	c8.1,0,14.6-8.2,14.6-18.3V25z M55.9,35.9H22c-1.5,0-2.7-1.5-2.7-3.4c0-1.8,1.2-3.4,2.7-3.4h34c1.5,0,2.7,1.5,2.7,3.4
	C58.6,34.4,57.4,35.9,55.9,35.9L55.9,35.9z M55.9,60.2H22c-1.5,0-2.7-1.5-2.7-3.4c0-1.9,1.2-3.4,2.7-3.4h34c1.5,0,2.7,1.5,2.7,3.4
	C58.6,58.6,57.4,60.2,55.9,60.2L55.9,60.2z M55.9,84.4H22c-1.5,0-2.7-1.5-2.7-3.4c0-1.8,1.2-3.4,2.7-3.4h34c1.5,0,2.7,1.5,2.7,3.4
	C58.6,82.9,57.4,84.4,55.9,84.4L55.9,84.4z M109.9,86.8c0,1.9-1.2,3.4-2.7,3.4c-1.5,0-2.7-1.5-2.7-3.4c0-12.7-8.2-23-18.3-23
	c-10.1,0-18.3,10.3-18.3,23c0,1.9-1.2,3.4-2.7,3.4c-1.5,0-2.7-1.5-2.7-3.4c0-13.3,7-24.4,16.6-28.2c-5.2-3.3-8.8-10-8.8-17.8
	c0-11,7.1-19.9,15.9-19.9c8.8,0,15.9,9,15.9,19.9c0,7.8-3.6,14.5-8.8,17.8C102.9,62.5,109.9,73.6,109.9,86.8L109.9,86.8z M96.8,40.9
	c0-7.3-4.7-13.2-10.5-13.2c-5.8,0-10.5,5.9-10.5,13.2c0,7.3,4.7,13.2,10.5,13.2C92.1,54.1,96.8,48.2,96.8,40.9L96.8,40.9z
	 M96.8,40.9"/>
</svg>
