<?xml version="1.0" encoding="utf-8"?>
<!-- Generator: Adobe Illustrator 21.0.0, SVG Export Plug-In . SVG Version: 6.00 Build 0)  -->
<svg version="1.1" id="弱" xmlns="http://www.w3.org/2000/svg" xmlns:xlink="http://www.w3.org/1999/xlink" x="0px" y="0px"
	 viewBox="0 0 26 30" style="enable-background:new 0 0 26 30;" xml:space="preserve">
<style type="text/css">
	.st0{fill:#EE2222;}
	.st1{fill:#FFFFFF;}
	.st2{font-family:'MicrosoftYaHei';}
	.st3{font-size:15.488px;}
</style>
<path id="形状_35" class="st0" d="M13,0c-0.4,0-0.8,0.1-1.1,0.3c-0.1,0-2.5,2.5-4.8,3C5.7,3.6,4.3,3.8,3,3.8H2
	c-0.5,0-1,0.2-1.4,0.5C0.2,4.6,0,5.1,0,5.6v4.7C0,27.7,12.1,29.9,12.6,30c0.1,0,0.2,0,0.3,0c0.1,0,0.2,0,0.3,0
	C13.8,29.9,26,27.7,26,10.3V5.6c0-0.5-0.2-1-0.6-1.4C25,3.9,24.5,3.7,24,3.7h-1c-1.3,0-2.7-0.1-4-0.4c-2-0.4-4.3-2.5-4.9-3
	C13.7,0.1,13.4,0,13,0L13,0L13,0z"/>
<text id="弱-2" transform="matrix(0.9948 0 0 1 6.2618 19.8402)" class="st1 st2 st3">弱</text>
</svg>
