<?xml version="1.0" encoding="utf-8"?>
<!-- Generator: Adobe Illustrator 22.0.1, SVG Export Plug-In . SVG Version: 6.00 Build 0)  -->
<svg version="1.1" id="图层_1" xmlns="http://www.w3.org/2000/svg" xmlns:xlink="http://www.w3.org/1999/xlink" x="0px" y="0px"
	 viewBox="0 0 715.6 715.7" style="enable-background:new 0 0 715.6 715.7;" xml:space="preserve">
<style type="text/css">
	.st0{fill:none;}
	.st1{fill:#FF0000;}
</style>
<path class="st0" d="M357.9,51.1c-169.4,0-306.7,137.3-306.7,306.7c0,169.4,137.3,306.7,306.7,306.7
	c169.4,0,306.7-137.3,306.7-306.7C664.6,188.5,527.3,51.1,357.9,51.1z M402.7,561.9H300.4V459.7h102.3V561.9z M402.7,426.2H300.4
	V152.6h102.3V426.2z"/>
<g>
	<rect x="300.4" y="459.7" class="st1" width="102.3" height="102.1"/>
	<rect x="300.4" y="152.6" class="st1" width="102.3" height="273.6"/>
	<path class="st1" d="M357.9,0C160.2,0,0,160.2,0,357.9s160.2,357.9,357.9,357.9c194.5,0,352.8-155.2,357.7-348.5v-18.7
		C710.7,155.2,552.4,0,357.9,0z M357.9,664.6c-169.4,0-306.7-137.3-306.7-306.7c0-169.4,137.3-306.7,306.7-306.7
		c169.4,0,306.7,137.3,306.7,306.7C664.6,527.3,527.3,664.6,357.9,664.6z"/>
</g>
</svg>
