<?xml version="1.0" encoding="utf-8"?>
<!-- Generator: Adobe Illustrator 22.0.1, SVG Export Plug-In . SVG Version: 6.00 Build 0)  -->
<svg version="1.1" id="图层_1" xmlns="http://www.w3.org/2000/svg" xmlns:xlink="http://www.w3.org/1999/xlink" x="0px" y="0px"
	 viewBox="0 0 715.6 715.7" style="enable-background:new 0 0 715.6 715.7;" xml:space="preserve">
<style type="text/css">
	.st0{fill:#E7211A;}
</style>
<g>
	<path class="st0" d="M353.9,254.7c-52.3,0-94.8,42.5-94.8,94.8c0,52.3,42.5,94.8,94.8,94.8c10.4,0,20.6-1.7,30.3-4.9
		c8.3-2.8,12.7-11.8,9.9-20.1c-2.8-8.3-11.8-12.7-20.1-10c-6.5,2.2-13.3,3.3-20.2,3.3c-34.8,0-63.1-28.3-63.1-63.1
		c0-34.8,28.3-63.1,63.1-63.1c34.8,0,63.1,28.3,63.1,63.1c0,4.7-0.5,9.2-1.5,13.7c-0.5,2.1-1.1,4.2-1.7,6.3c-2.8,8.3,1.7,17.3,10,20
		c8.4,2.8,17.3-1.7,20.1-10c1-3.1,1.9-6.3,2.6-9.5c1.5-6.6,2.2-13.5,2.2-20.5C448.7,297.3,406.2,254.7,353.9,254.7z"/>
	<path class="st0" d="M517.7,255c-5.4-9.3-8.7-19.4-10-29.8c-1.8-15,0.7-30.5,7.6-44.5c3.2-6.6,1.6-14.5-4-19.2
		c-21.6-18.1-46.2-32.3-73.3-42.2c-6.9-2.5-14.6,0-18.6,6.1c-14.7,21.9-39.2,35-65.5,35c-26.3,0-50.8-13.1-65.5-35
		c-4.1-6.1-11.8-8.6-18.6-6.1c-27.1,9.9-51.7,24.1-73.3,42.2c-5.6,4.7-7.3,12.6-4,19.2c6.9,14,9.5,29.5,7.6,44.5
		c-1.3,10.3-4.6,20.5-10,29.8c-10.5,18.2-27.8,31.3-47.7,36.6c-5,1.3-10.1,2.2-15.3,2.6c-7.3,0.5-13.3,5.9-14.6,13.1
		c-2.2,12.8-3.5,24.8-3.8,36.5v11.4c0.3,11.7,1.6,23.7,3.8,36.6c1.3,7.2,7.3,12.6,14.6,13.1c5.2,0.4,10.4,1.2,15.3,2.6
		c20,5.4,37.2,18.4,47.7,36.6c13.2,22.8,14.1,50.6,2.4,74.3c-3.2,6.6-1.5,14.5,4,19.2c21.6,18.1,46.2,32.3,73.3,42.1
		c6.8,2.5,14.5,0,18.6-6.1c14.7-21.9,39.1-35,65.4-35c26.3,0,50.8,13.1,65.4,35c3,4.5,8,7,13.2,7c1.8,0,3.7-0.3,5.4-1
		c27.1-9.9,51.7-24.1,73.3-42.1c5.6-4.7,7.3-12.6,4-19.2c-11.7-23.7-10.8-51.5,2.4-74.3c13.2-22.8,36.7-37.4,63-39.2
		c7.3-0.5,13.3-5.9,14.6-13.1c2.6-14.9,3.9-28.8,3.9-42.3c0-13.5-1.3-27.3-3.9-42.2c-1.3-7.2-7.3-12.6-14.6-13.1
		C554.4,292.5,530.8,277.8,517.7,255z M567.4,349.5c0,8.2-0.6,16.6-1.7,25.4c-31.6,5.8-59.3,25.2-75.5,53.4v0
		c-16.3,28.2-19.2,61.8-8.4,92.2c-13.5,10.1-28.2,18.5-44,25.2C417,521.2,386.5,507,353.9,507c-32.5,0-63.1,14.3-83.9,38.7
		c-15.8-6.7-30.5-15.2-44-25.2c10.8-30.3,7.9-64-8.4-92.2c-16.2-28.1-43.7-47.3-75.2-53.3c-0.1,0-0.3-0.1-0.4-0.1
		c-1.1-8.8-1.7-17.2-1.7-25.4c0-8.1,0.5-16.5,1.7-25.3c0.1,0,0.3-0.1,0.4-0.1c31.5-5.9,59-25.2,75.2-53.3
		c8.2-14.2,13-29.8,14.4-45.6c1.4-15.6-0.6-31.5-6-46.6c13.5-10.1,28.2-18.5,43.9-25.2c20.9,24.5,51.4,38.8,84,38.8
		c32.6,0,63.1-14.3,84-38.8c15.8,6.7,30.5,15.2,43.9,25.2c-5.4,15.1-7.3,31-6,46.6c1.4,15.8,6.2,31.4,14.4,45.6
		c16.3,28.2,43.9,47.5,75.6,53.4C566.9,333.1,567.4,341.4,567.4,349.5z"/>
	<path class="st0" d="M357.9,0C160.2,0,0,160.2,0,357.9s160.2,357.9,357.9,357.9c194.5,0,352.8-155.2,357.7-348.5v-18.7
		C710.7,155.2,552.4,0,357.9,0z M357.9,664.6c-169.4,0-306.7-137.3-306.7-306.7c0-169.4,137.3-306.7,306.7-306.7
		c169.4,0,306.7,137.3,306.7,306.7C664.6,527.3,527.3,664.6,357.9,664.6z"/>
</g>
</svg>
