<svg id="图层_1" data-name="图层 1" xmlns="http://www.w3.org/2000/svg" viewBox="0 0 74.22 87.34"><defs><style>.cls-1{fill:#159b71;}.cls-2{fill:#fff;}</style></defs><title>强</title><path class="cls-1" d="M70.79,12.56A59.26,59.26,0,0,1,39,1.32L37.1,0,35.22,1.32C25.3,8.29,14.6,12.07,3.49,12.55H0V43.2a46.23,46.23,0,0,0,36.31,44l.93.15.67-.15A46.22,46.22,0,0,0,74.22,42.11V12.55Z"/><path class="cls-2" d="M11.85,33H22.72V23.66H10.19V19.89H26.82V39.13h-4.1V36.74H15.46l-1,8.59H26.32q-.56,11.81-1,17.24-.5,7.54-7.48,7.54-2.49,0-6-.06Q11.52,68,11,65.62q3.6.28,6.15.28,3.77,0,4-3.88.44-5.65.78-12.92H10.08ZM30,40.51H43.4V34q-3.77.28-7.59.5a23.69,23.69,0,0,0-4.71,1L29.15,31.2a12.67,12.67,0,0,0,4-2.49,55.69,55.69,0,0,0,9-12l4.27,1.94q-5.43,7.26-9.7,12,8-.33,16.91-.78-2.22-3-4.44-6l3.33-2.11Q58,28.54,62.41,34.58l-3.83,2.49L56,33.3l-8.54.44v6.76H60.91V56H47.5v8q4.71-.22,9.26-.39-1.05-2.11-2.11-4.1l3.71-1.77q3.21,5.65,6.15,11.59L60.36,71.5q-.89-2.11-1.83-4.1L27.76,69.5l-.61-4.6q8.37-.28,16.24-.61V56H34V58.2H30Zm4,11.75H43.4v-8H34Zm23,0v-8H47.5v8Z"/></svg>