<?xml version="1.0" encoding="utf-8"?>
<!-- Generator: Adobe Illustrator 22.0.1, SVG Export Plug-In . SVG Version: 6.00 Build 0)  -->
<svg version="1.1" id="图层_1" xmlns="http://www.w3.org/2000/svg" xmlns:xlink="http://www.w3.org/1999/xlink" x="0px" y="0px"
	 viewBox="0 0 143.9 229.3" style="enable-background:new 0 0 143.9 229.3;" xml:space="preserve">
<g>
	<path d="M72.4,143.3c-4,0-7.2,3.2-7.2,7.2v28.6c0,4,3.2,7.2,7.2,7.2c4,0,7.2-3.2,7.2-7.2v-28.6C79.5,146.5,76.3,143.3,72.4,143.3
		L72.4,143.3z M72.4,143.3"/>
	<path d="M129.7,114.7V57.3C129.7,25.7,104,0,72.4,0C40.7,0,15.1,25.7,15.1,57.3v57.4c-9,12-14.3,26.8-14.3,42.8
		c0,39.6,32.1,71.6,71.6,71.6s71.6-32.1,71.6-71.6C144,141.5,138.6,126.7,129.7,114.7L129.7,114.7z M29.4,57.3c0-23.7,19.2-43,43-43
		c23.7,0,43,19.2,43,43v43.1c-12-9-26.8-14.4-43-14.4c-16.1,0-31,5.4-43,14.4V57.3z M72.4,214.9c-31.6,0-57.3-25.7-57.3-57.3
		c0-31.6,25.7-57.3,57.3-57.3c30.6,0,57.3,26.7,57.3,57.3C129.7,189.2,104,214.9,72.4,214.9L72.4,214.9z M72.4,214.9"/>
</g>
</svg>
