<?xml version="1.0" encoding="utf-8"?>
<!-- Generator: Adobe Illustrator 22.0.1, SVG Export Plug-In . SVG Version: 6.00 Build 0)  -->
<svg version="1.1" id="图层_1" xmlns="http://www.w3.org/2000/svg" xmlns:xlink="http://www.w3.org/1999/xlink" x="0px" y="0px"
	 viewBox="0 0 61.7 75.8" style="enable-background:new 0 0 61.7 75.8;" xml:space="preserve">
<g>
	<path d="M56.9,28.4h-2.4v-4.7C54.6,10.6,44,0,30.9,0C17.8,0,7.2,10.6,7.2,23.7v4.7H4.8c-2.6,0-4.7,2.1-4.7,4.7v37.9
		c0,2.6,2.1,4.7,4.7,4.7h52.1c2.6,0,4.7-2.1,4.7-4.7V33.2C61.7,30.6,59.6,28.4,56.9,28.4L56.9,28.4z M11.9,23.7c0-10.5,8.5-19,19-19
		s19,8.5,19,19v4.7H11.9V23.7z M56.9,71.1H4.8V33.2h52.1V71.1z M56.9,71.1"/>
	<path d="M30.9,42.7c-1.3,0-2.4,1.1-2.4,2.4v14.2c0,1.3,1.1,2.4,2.4,2.4c1.3,0,2.4-1.1,2.4-2.4V45C33.3,43.7,32.2,42.7,30.9,42.7
		L30.9,42.7z M30.9,42.7"/>
</g>
</svg>
