<?xml version="1.0" encoding="utf-8"?>
<!-- Generator: Adobe Illustrator 22.0.1, SVG Export Plug-In . SVG Version: 6.00 Build 0)  -->
<svg version="1.1" id="图层_1" xmlns="http://www.w3.org/2000/svg" xmlns:xlink="http://www.w3.org/1999/xlink" x="0px" y="0px"
	 viewBox="0 0 488.1 587.1" style="enable-background:new 0 0 488.1 587.1;" xml:space="preserve">
<style type="text/css">
	.st0{fill:#FFFFFF;}
</style>
<g>
	<path class="st0" d="M336.1,154.1c29.6-19,49.5-40.1,58.5-61.5c11.9-28.1,3.4-55.6-21.4-65.6c-10.9-4.4-22-4.4-33.2-0.9
		c-7.7,2.4-14,5.7-23.9,11.7c-10.3,6.2-11.7,7.1-14.9,8.4c-1.2,0.5-2.1,0.8-2.7,0.9c-2.2-1.2-4.7-4.7-9.8-14.2v0
		c-5.5-10.3-8.3-14.9-13.3-20.1C267.8,4.6,258.1,0,246.4,0c-11.4,0-21,4.1-29,11.6c-5.2,4.8-8.3,9.1-14.6,18.8
		c-5.3,8.2-8,11.8-10.5,13.4c-0.3-0.1-0.7-0.3-1-0.5c-2.7-1.4-3.4-1.8-13.3-8.8c-11.4-8.1-18.9-12.3-28.4-14.6
		c-14-3.4-27.7-0.3-40.1,9.8C86.5,48.4,87.3,76,105.8,104c10.7,16.2,27.5,33,48.3,49C67.7,198.6,0,305.2,0,392.5
		C0,501,110.1,587.1,244.1,587.1c134,0,244-86.1,244-194.6C488.1,305.8,421.5,200.4,336.1,154.1z M244.1,553
		c-116.7,0-209.9-72.9-209.9-160.4c0-83.4,75.9-192.4,162.8-220.9c5.8-1.9,10.2-6.7,11.5-12.7c1.3-6-0.8-12.2-5.4-16.3
		c-3-2.7-6.8-4.1-10.7-4.3c-26.2-17.4-47.1-36.6-58.1-53.2c-9.9-14.9-10.1-23.4-3.2-29c7-5.7,12-4.5,27.1,6.2l4.1,2.9
		c1.7,1.2,3,2.1,4.3,3c3.5,2.4,6.5,4.2,9.6,5.7c9.5,4.7,18.9,6,28.3,1.9c11.5-4.9,17.1-11.4,27.1-27c7.8-12.2,10.5-14.7,14.9-14.7
		c3.5,0,5.6,2.3,12.3,14.7c9.3,17.3,14.7,24.5,26.9,29.8c9.3,4,18.8,3.2,28.7-0.8c5.6-2.3,7.2-3.2,19.7-10.8
		c14.3-8.7,20.8-10.7,26.6-8.3c5.6,2.3,7.7,8.9,2.7,20.6c-7.8,18.5-30.3,39.4-67,58.3c-8.1-1.1-16.1,3.7-18.6,11.8
		c-2.8,9,2.2,18.5,11.2,21.4C376.7,198.3,454,308.3,454,392.5C454,480.1,360.8,553,244.1,553z"/>
	<path class="st0" d="M244.5,340.2c-0.4,0-0.9,0-1.3,0c-0.4-0.1-0.9-0.1-1.3-0.1c-13-0.4-24.4-8.7-28.9-20.8
		c-4.5-12.1-1.3-25.8,8.2-34.7c9.5-8.8,23.4-11.1,35.2-5.7c11.8,5.4,19.2,17.3,18.7,30.3c-0.2,4.8,2.2,9.3,6.3,11.8
		c4,2.5,9.1,2.7,13.3,0.5c4.2-2.2,6.9-6.6,7.1-11.3c1-28.2-18.1-52.5-44.4-59.1v-12.4c0-7.4-6-13.4-13.4-13.4s-13.4,6-13.4,13.4
		v11.9c-25.7,5.5-45.4,27.9-46.4,55.4c-1.1,32.4,24.2,59.6,56.7,60.8c0.4,0,0.9,0,1.3,0c0.4,0.1,0.9,0.1,1.3,0.1
		c19.2,0.7,34.2,16.8,33.5,35.9c-0.7,19.2-16.8,34.2-35.9,33.5c-19.2-0.7-34.2-16.8-33.5-35.9c0.3-4.8-2.1-9.4-6.2-12
		c-4.1-2.6-9.2-2.8-13.5-0.5c-4.3,2.3-6.9,6.7-7,11.5c-1.1,30.6,20.5,56.8,49.6,62.5v11.8c0,7.4,6,13.4,13.4,13.4s13.4-6,13.4-13.4
		v-12.5h0c25.9-6.5,45.5-29.5,46.5-57.5C304.9,369.8,278.4,341.3,244.5,340.2z"/>
</g>
</svg>
