<?xml version="1.0" encoding="utf-8"?>
<!-- Generator: Adobe Illustrator 21.0.0, SVG Export Plug-In . SVG Version: 6.00 Build 0)  -->
<svg version="1.1" id="图层_1" xmlns="http://www.w3.org/2000/svg" xmlns:xlink="http://www.w3.org/1999/xlink" x="0px" y="0px"
	 viewBox="0 0 819.2 819.2" style="enable-background:new 0 0 819.2 819.2;" xml:space="preserve">
<style type="text/css">
	.st0{clip-path:url(#SVGID_2_);fill:#EE2222;}
</style>
<g>
	<defs>
		<rect id="SVGID_1_" width="819.2" height="819.2"/>
	</defs>
	<clipPath id="SVGID_2_">
		<use xlink:href="#SVGID_1_"  style="overflow:visible;"/>
	</clipPath>
	<path class="st0" d="M699.2,120C539.3-40,279.9-40,120,120c-160,160-160,419.3,0,579.3c160,160,419.3,160,579.3,0
		C859.2,539.3,859.2,279.9,699.2,120 M543.6,505c10.3,10.3,12.1,27.2,2.6,38.2c-5.2,6.1-12.8,9.6-20.8,9.6c-7.2,0-14.2-2.9-19.3-8
		l-77.2-77.2c-10.7-10.7-27.9-10.7-38.6,0l-77.2,77.3c-5.4,5.4-12.8,8.3-20.4,8c-7.6-0.3-14.8-3.8-19.7-9.6
		c-9.5-11-7.6-27.9,2.6-38.2l76.1-76.1c10.7-10.7,10.7-27.9,0-38.6l-76.2-76.2c-9.6-9.6-11.9-25.1-4-36.1c4.7-6.6,12-10.7,20-11.4
		c8-0.7,15.9,2.2,21.6,7.9l77.2,77.2c10.7,10.7,27.9,10.7,38.6,0l76.2-76.2c9.6-9.6,25.1-11.9,36.1-4c6.6,4.7,10.7,12,11.4,20
		c0.7,8-2.2,15.9-7.9,21.6l-77.2,77.2c-10.7,10.7-10.7,27.9,0,38.6L543.6,505z"/>
</g>
</svg>
