<?xml version="1.0" encoding="utf-8"?>
<!-- Generator: Adobe Illustrator 22.0.1, SVG Export Plug-In . SVG Version: 6.00 Build 0)  -->
<svg version="1.1" id="图层_1" xmlns="http://www.w3.org/2000/svg" xmlns:xlink="http://www.w3.org/1999/xlink" x="0px" y="0px"
	 viewBox="0 0 819.1 819.2" style="enable-background:new 0 0 819.1 819.2;" xml:space="preserve">
<style type="text/css">
	.st0{fill:#FFFFFF;}
</style>
<g>
	<path class="st0" d="M805.3,400.2l-358.4-384C437.3,5.9,423.7,0,409.5,0c-14.2,0-27.8,5.9-37.4,16.2l-161.4,173
		c-4.6,4.6-7.5,11-7.5,18.2c0,14.2,11.4,25.6,25.6,25.6c7.7,0,14.6-3.4,19.2-8.7l161.6-173l358.4,384H665.5v267.2
		c0,36.2-29.4,65.6-65.6,65.6h-88V565.4c0.1-0.7,0.1-1.4,0.1-2.2c0-14.2-11.4-25.6-25.6-25.6H332.7c-14.2,0-25.6,11.4-25.6,25.6
		v204.7h-88c-36.2,0-65.6-29.4-65.6-65.6V435.2H51.1l70.7-75.8c4.8-4.6,7.8-11.1,7.8-18.3c0-14.2-11.4-25.6-25.6-25.6
		c-6.9,0-13.2,2.7-17.8,7.2l-0.2,0.2c-0.5,0.5-1,1-1.4,1.5l-70.9,75.9c-8.3,8.7-13,19.9-13.7,31.4v6.8c0.4,5.8,1.7,11.5,4.1,17
		c8.2,18.7,26.6,30.8,47,30.8h51.2v216c0,15.8,3.1,31,9.2,45.4c5.9,13.9,14.3,26.4,25,37.1c10.7,10.7,23.2,19.1,37.1,25
		c14.4,6.1,29.8,9.2,45.4,9.2h88c13.6,0,26.6-5.4,36.2-15c9.6-9.6,15-22.6,15-36.2V588.8h102.4V768c0,28.2,23,51.2,51.2,51.2h88
		c15.8,0,31-3.1,45.4-9.2c13.9-5.9,26.4-14.3,37.1-25c10.7-10.7,19.1-23.2,25-37.1c6.1-14.4,9.2-29.8,9.2-45.4v-216h51.2
		c20.4,0,38.8-12.1,47-30.8C823,436.9,819.3,415.2,805.3,400.2z"/>
	<path class="st0" d="M155,313c6.6,0,13.1-2.5,18.1-7.5l22.6-22.6c10-10,10-26.2,0-36.2c-10-10-26.2-10-36.2,0l-22.6,22.6
		c-10,10-10,26.2,0,36.2C141.9,310.5,148.5,313,155,313z"/>
</g>
</svg>
