<?xml version="1.0" encoding="utf-8"?>
<!-- Generator: Adobe Illustrator 22.0.1, SVG Export Plug-In . SVG Version: 6.00 Build 0)  -->
<svg version="1.1" id="图层_1" xmlns="http://www.w3.org/2000/svg" xmlns:xlink="http://www.w3.org/1999/xlink" x="0px" y="0px"
	 viewBox="0 0 511 511.9" style="enable-background:new 0 0 511 511.9;" xml:space="preserve">
<style type="text/css">
	.st0{clip-path:url(#SVGID_2_);}
</style>
<g>
	<g>
		<defs>
			<rect id="SVGID_1_" width="511" height="511.9"/>
		</defs>
		<clipPath id="SVGID_2_">
			<use xlink:href="#SVGID_1_"  style="overflow:visible;"/>
		</clipPath>
		<path class="st0" d="M235.7,255.6V19.9c0-10.8,8.8-19.6,19.6-19.6c10.8,0,19.6,8.8,19.6,19.6v235.7c0,10.8-8.8,19.6-19.6,19.6
			C244.5,275.3,235.7,266.5,235.7,255.6L235.7,255.6z M235.7,255.6"/>
		<path class="st0" d="M464.5,109.2c-17-24.4-38.3-45.7-62.6-62.7l-0.1,0.1c-8.9-5.6-20.6-3.3-26.6,5.3c-6,8.6-4.2,20.4,4.1,26.8
			c0.1,0.1,0.2,0.1,0.3,0.1c26.6,18.7,33.9,26,52.7,52.9c68.3,97.6,44.5,232.6-53.1,300.9c-74.4,51.9-173.4,51.9-247.8,0.1
			c-20.6-14.5-38.6-32.5-53-53.1c-33-46.8-45.9-105-35.8-161.4c9.8-56.5,41.8-106.7,88.9-139.4c0.2-0.1,0.3-0.2,0.4-0.3l-0.1-0.1
			c8.3-6.5,10-18.4,3.8-26.9c-6.2-8.6-18-10.7-26.8-4.9c-0.1,0-0.1,0.1-0.2,0.2l0,0c-115.4,80.9-143.4,240-62.5,355.5
			c17,24.4,38.2,45.7,62.6,62.7c88,61.5,205,61.5,292.9-0.1C517.3,383.9,545.3,224.7,464.5,109.2L464.5,109.2z M464.5,109.2"/>
	</g>
</g>
</svg>
