<?xml version="1.0" encoding="utf-8"?>
<!-- Generator: Adobe Illustrator 22.0.1, SVG Export Plug-In . SVG Version: 6.00 Build 0)  -->
<svg version="1.1" id="图层_1" xmlns="http://www.w3.org/2000/svg" xmlns:xlink="http://www.w3.org/1999/xlink" x="0px" y="0px"
	 viewBox="0 0 714 716.9" style="enable-background:new 0 0 714 716.9;" xml:space="preserve">
<style type="text/css">
	.st0{fill:#FFFFFF;}
	.st1{fill:none;}
</style>
<g>
	<path class="st0" d="M331.5,503.4c0,13.3,9.9,24.8,23.1,26.7l6.6,0c14.4,0,25.2-10.8,25.2-25.2v-55.1h82.4
		c14.4,0,25.2-10.8,25.2-25.2v-4.5c0-14.4-10.8-25.2-25.2-25.2h-82.4v-51.2h82.4c14.4,0,25.2-10.8,25.2-25.2V314
		c0-14.4-10.8-25.2-25.2-25.2h-87.1l67-62.9l0.1-0.1c10.2-10.2,10.9-26.1,1.8-37.2l-0.2-0.3c-11.1-11.1-28.6-11.8-38.9-1.6
		l-52.9,49.6l-50.6-54l-0.1-0.1c-11.2-11.2-28.6-11.8-38.9-1.5c-11.1,11.1-11.8,28.6-1.6,38.9l64.7,69.1h-86.1
		c-14.4,0-25.2,10.8-25.2,25.2v4.5c0,14.4,10.8,25.2,25.2,25.2h85.4v51.2h-85.4c-14.4,0-25.2,10.8-25.2,25.2v4.5
		c0,14.4,10.8,25.2,25.2,25.2h85.4V503.4z"/>
	<path class="st0" d="M110.4,170.9c25.2-33.2,56.4-60.8,93-81.8c51.1-29.6,110-43.7,170.3-40.8c0.4,0,0.8,0,1.2,0
		c12.6,0,23.1-9.9,23.7-22.6c0.6-13.1-9.5-24.2-22.6-24.9c-69.4-3.4-137.3,12.9-196.4,47.1c-42.1,24.2-78.1,55.9-107.1,94.3
		c-28,37-48.3,78.6-60.3,123.6C0.2,310.6-3,356.6,2.8,402.4c5.9,47.3,21.1,92.3,45.2,133.8c5.8,11,12.3,21.5,19.5,31.7l-23.9-4.6
		c-6.5-1.6-13.7-0.2-19.7,3.9c-5.8,4-9.6,9.9-10.4,16.3l0,1.5c-3,12.8,6.1,26.4,20,29.9l103.1,19.7c1.7,0.4,3.5,0.6,5.2,0.6
		c11.1,0,21.9-8.5,24.9-20.6l0.1-0.3v-1.5c1.5-6.3,0.1-13-3.8-18.7c-3.8-5.5-9.7-9.6-16.2-11.2l-3.2-0.6c-0.3-0.3-0.5-0.5-0.8-0.8
		c-22.5-21-39.8-43.2-52.8-67.9c-0.2-0.3-0.3-0.6-0.5-0.9c-21-36.1-34.2-75.2-39.4-116.2c-5-39.7-2.2-79.5,8.1-118.4
		C68.5,239,86.1,203,110.4,170.9z"/>
	<path class="st0" d="M710.6,313.5c-6-47.4-21.2-92.6-45.4-134.2c-10.3-17.7-21.6-33.9-34-49l22.1,4.2c1.7,0.4,3.5,0.6,5.3,0.6
		c4.7,0,9.4-1.5,13.6-4.4c5.5-3.8,9.6-9.7,11.2-16.2l0.1-0.3v-1.5c1.5-6.3,0.1-13-3.8-18.7c-3.8-5.5-9.7-9.6-16.2-11.2L560.2,63.2
		c-12.8-3.2-26.6,5.9-30.1,19.9l-0.1,0.3v1.5c-1.5,6.3-0.1,13,3.8,18.7c3.3,4.8,8.1,8.4,13.6,10.4c1,1.2,2.1,2.3,3.3,3.3
		c29.4,23.8,53.4,51.9,73.2,85.9c21,36.1,34.2,75.2,39.4,116.3c5,39.7,2.2,79.5-8.2,118.4c-10.4,39-28,75.1-52.3,107.2
		c-25.2,33.2-56.4,60.8-92.9,81.8l-0.2,0.1c-31.7,18.6-65.9,31.1-101.7,37.2c-34.7,5.9-70,5.7-104.8-0.7c-6.2-1.1-12.6,0.2-17.8,3.8
		c-5.2,3.6-8.7,9-9.9,15.3c-1.1,6.2,0.2,12.6,3.8,17.8c3.6,5.2,9,8.7,15.3,9.9c20.8,3.8,42,5.8,63,5.8c19.5,0,39.1-1.7,58.3-5
		c41.4-7.1,81-21.6,117.6-43c42-24.2,78.1-55.9,107.1-94.2c28-37,48.3-78.6,60.3-123.6C713.2,405.3,716.3,359.3,710.6,313.5z"/>
</g>
<rect x="0.1" class="st1" width="713.9" height="716.9"/>
</svg>
