<svg id="图层_1" data-name="图层 1" xmlns="http://www.w3.org/2000/svg" viewBox="0 0 12.78 18.97"><defs><style>.cls-1{fill:#fd373b;}</style></defs><title>上升</title><path id="形状_2_副本_2_拷贝_2" data-name="形状 2 副本 2 拷贝 2" class="cls-1" d="M5.62,18.07a.92.92,0,1,1,.94.9h0a.91.91,0,0,1-.92-.9Zm0-3.55a.92.92,0,1,1,.94.9h0a.91.91,0,0,1-.92-.9Zm0-3.55a.92.92,0,1,1,.94.9h0a.91.91,0,0,1-.92-.9Zm0-3.55a.92.92,0,1,1,.94.9h0a.91.91,0,0,1-.92-.9ZM5.91.13.17,5.73a.79.79,0,0,0,.17,1.1A.84.84,0,0,0,1.47,7L6.41,2.2,11.34,7a.84.84,0,0,0,1.13-.17.79.79,0,0,0,.18-1.1L6.9.13a.91.91,0,0,0-1,0Z"/></svg>