<?xml version="1.0" encoding="utf-8"?>
<!-- Generator: Adobe Illustrator 22.0.1, SVG Export Plug-In . SVG Version: 6.00 Build 0)  -->
<svg version="1.1" id="图层_1" xmlns="http://www.w3.org/2000/svg" xmlns:xlink="http://www.w3.org/1999/xlink" x="0px" y="0px"
	 viewBox="0 0 819.2 819.2" style="enable-background:new 0 0 819.2 819.2;" xml:space="preserve">
<style type="text/css">
	.st0{fill:#FFFFFF;}
</style>
<g>
	<g>
		<path class="st0" d="M409.6,0c-60.2,0-118.4,12.7-172.4,38.1c-10.2,4.9-14.7,16.8-9.8,27c4.9,10.2,16.8,14.7,27,9.8
			c48.7-22.5,101.2-34,155.2-34c203.2,0,368.6,165.5,368.6,368.6c0,75-22.5,145-61.4,203.6c-53.3-67.6-126.6-115.5-208.5-136.4
			c51.6-32.8,85.6-90.1,85.6-155.6c0-101.6-82.7-184.3-184.3-184.3c-101.6,0-184.3,82.7-184.3,184.3c0,65.9,34.8,123.7,86.8,156.5
			c-81.9,21.7-155.2,70-207.7,138.4C64.3,557.1,41,485.8,41,409.6c0-57.3,12.7-111.8,37.7-163c4.9-10.2,0.8-22.5-9.4-27.4
			c-10.2-4.9-22.5-0.8-27.4,9.4C14.3,285.1,0,346.1,0,409.6c0,225.7,183.9,409.6,409.6,409.6c225.7,0,409.6-183.9,409.6-409.6
			C819.2,183.9,635.3,0,409.6,0L409.6,0z M266.2,321.1c0-79.1,64.3-143.4,143.4-143.4c79,0,143.4,64.3,143.4,143.4
			c0,79.1-64.3,143.4-143.4,143.4C330.5,464.5,266.2,400.2,266.2,321.1L266.2,321.1z M409.6,778.2c-111.8,0-211.8-50-279.3-128.6
			c65.1-90.5,169.2-144.2,281.4-144.2c111,0,214.2,52.8,279.8,141.7C623.8,727,522.6,778.2,409.6,778.2L409.6,778.2z M409.6,778.2"
			/>
	</g>
</g>
<g>
	<g>
		<path class="st0" d="M766,679c7.7,0,7.7-12,0-12C758.3,667,758.3,679,766,679L766,679z"/>
	</g>
</g>
</svg>
