<?xml version="1.0" encoding="utf-8"?>
<!-- Generator: Adobe Illustrator 22.0.1, SVG Export Plug-In . SVG Version: 6.00 Build 0)  -->
<svg version="1.1" id="图层_1" xmlns="http://www.w3.org/2000/svg" xmlns:xlink="http://www.w3.org/1999/xlink" x="0px" y="0px"
	 viewBox="0 0 351.2 351.6" style="enable-background:new 0 0 351.2 351.6;" xml:space="preserve">
<style type="text/css">
	.st0{clip-path:url(#SVGID_2_);}
</style>
<g>
	<g>
		<defs>
			<rect id="SVGID_1_" x="0.1" width="351.1" height="351.6"/>
		</defs>
		<clipPath id="SVGID_2_">
			<use xlink:href="#SVGID_1_"  style="overflow:visible;"/>
		</clipPath>
		<path class="st0" d="M102.5,245.6c3.6,3.6,9.5,3.6,13.1,0l59.9-59.9l59.9,59.9c3.6,3.6,9.5,3.6,13.1,0c3.6-3.6,3.6-9.5,0-13.1
			l-59.9-59.9l59.9-59.9c3.6-3.6,3.6-9.5,0-13.1c-3.6-3.6-9.5-3.6-13.1,0l-59.9,59.9l-59.9-59.9c-3.6-3.6-9.4-3.6-13.1,0
			c-3.6,3.6-3.6,9.5,0,13.1l59.9,59.9l-59.9,59.9C98.9,236.2,98.9,242,102.5,245.6L102.5,245.6z M350.9,175.7
			c0-96.9-78.5-175.4-175.4-175.4C78.5,0.3,0,78.8,0,175.7c0,96.9,78.5,175.4,175.4,175.4c39.8,0,76.2-13.5,105.6-35.8
			c1.2-1.4,2-3.1,2-5.1c0-4.3-3.5-7.8-7.8-7.8c-2.2,0-4.2,0.9-5.6,2.4h-0.1c-26.3,19.4-58.7,31-93.9,31
			c-87.7,0-158.9-71.1-158.9-158.9c0-87.7,71.1-158.9,158.9-158.9c87.7,0,158.9,71.1,158.9,158.9c0,26.8-6.3,52-18,74.2v0.1
			c-0.2,0.7-0.5,1.5-0.5,2.3c0,4.3,3.5,7.8,7.8,7.8c3.3,0,6.1-2.1,7.2-5.1v0.1C343.5,232.1,350.9,204.7,350.9,175.7L350.9,175.7z
			 M350.9,175.7"/>
	</g>
</g>
</svg>
