<?xml version="1.0" encoding="utf-8"?>
<!-- Generator: Adobe Illustrator 22.0.1, SVG Export Plug-In . SVG Version: 6.00 Build 0)  -->
<svg version="1.1" id="图层_1" xmlns="http://www.w3.org/2000/svg" xmlns:xlink="http://www.w3.org/1999/xlink" x="0px" y="0px"
	 viewBox="0 0 511.5 776.8" style="enable-background:new 0 0 511.5 776.8;" xml:space="preserve">
<style type="text/css">
	.st0{clip-path:url(#SVGID_2_);}
</style>
<g>
	<g>
		<defs>
			<rect id="SVGID_1_" x="0.3" y="-0.2" width="511" height="777.8"/>
		</defs>
		<clipPath id="SVGID_2_">
			<use xlink:href="#SVGID_1_"  style="overflow:visible;"/>
		</clipPath>
		<path class="st0" d="M255.8,622.9c-21.8,0-39.6,17.8-39.6,39.6c0,21.8,17.7,39.6,39.6,39.6c21.8,0,39.6-17.7,39.6-39.6
			C295.3,640.6,277.6,622.9,255.8,622.9 M451.5,0.1H60C27.1,0.1,0.3,26.9,0.3,59.8v657.1c0,33,26.8,59.7,59.7,59.7h391.5
			c32.9,0,59.7-26.8,59.7-59.7V59.8C511.2,26.9,484.4,0.1,451.5,0.1 M60,39.9h391.5c11,0,19.9,8.9,19.9,19.9v492.3H40.1V59.8
			C40.1,48.9,49,39.9,60,39.9 M451.5,736.8H60c-11,0-19.9-8.9-19.9-19.9V595.3h431.4v121.6C471.5,727.9,462.5,736.8,451.5,736.8"/>
	</g>
</g>
</svg>
