<?xml version="1.0" encoding="utf-8"?>
<!-- Generator: Adobe Illustrator 22.0.1, SVG Export Plug-In . SVG Version: 6.00 Build 0)  -->
<svg version="1.1" id="图层_1" xmlns="http://www.w3.org/2000/svg" xmlns:xlink="http://www.w3.org/1999/xlink" x="0px" y="0px"
	 viewBox="0 0 61.6 75.8" style="enable-background:new 0 0 61.6 75.8;" xml:space="preserve">
<g>
	<path d="M56.9,28.4h-2.4v-4.7C54.5,10.6,43.9,0,30.8,0C17.7,0,7.1,10.6,7.1,23.7v4.7H4.7c-2.6,0-4.7,2.1-4.7,4.7v37.9
		c0,2.6,2.1,4.7,4.7,4.7h52.1c2.6,0,4.7-2.1,4.7-4.7V33.2C61.6,30.6,59.5,28.4,56.9,28.4L56.9,28.4z M11.8,23.7c0-10.5,8.5-19,19-19
		s19,8.5,19,19v4.7H11.8V23.7z M56.9,71.1H4.7V33.2h52.1V71.1z M56.9,71.1"/>
	<path d="M30.8,42.6c-1.3,0-2.4,1.1-2.4,2.4v14.2c0,1.3,1.1,2.4,2.4,2.4c1.3,0,2.4-1.1,2.4-2.4V45C33.2,43.7,32.1,42.6,30.8,42.6
		L30.8,42.6z M30.8,42.6"/>
</g>
</svg>
