<?xml version="1.0" standalone="no"?><!DOCTYPE svg PUBLIC "-//W3C//DTD SVG 1.1//EN" "http://www.w3.org/Graphics/SVG/1.1/DTD/svg11.dtd"><svg t="1521105613103" class="icon" style="" viewBox="0 0 1024 1024" version="1.1" xmlns="http://www.w3.org/2000/svg" p-id="2464" xmlns:xlink="http://www.w3.org/1999/xlink" width="200" height="200"><defs><style type="text/css"></style></defs><path d="M544 800.128l-320 0.16-0.064-96.32-0.064-160-0.032-64-0.096-160-0.032-96h576.128L800 223.776 800.256 800 544 800.128zM799.84 160H223.712A63.808 63.808 0 0 0 160 223.744v576.544c0 35.136 28.608 63.68 63.744 63.68h576.512A63.808 63.808 0 0 0 864 800.32V223.744A64 64 0 0 0 799.84 160z" p-id="2465" fill="#ffffff"></path><path d="M680.608 320h-224a32 32 0 0 0 0 64h224a32 32 0 0 0 0-64M680.608 480h-224a32 32 0 0 0 0 64h224a32 32 0 0 0 0-64M680.608 640h-224a32 32 0 0 0 0 64h224a32 32 0 0 0 0-64M352 320a32 32 0 1 0 0 64 32 32 0 0 0 0-64M352 480a32 32 0 1 0 0 64 32 32 0 0 0 0-64M352 640a32 32 0 1 0 0 64 32 32 0 0 0 0-64" p-id="2466" fill="#ffffff"></path></svg>