<?xml version="1.0" encoding="utf-8"?>
<!-- Generator: Adobe Illustrator 21.0.0, SVG Export Plug-In . SVG Version: 6.00 Build 0)  -->
<svg version="1.0" id="图层_1" xmlns="http://www.w3.org/2000/svg" xmlns:xlink="http://www.w3.org/1999/xlink" x="0px" y="0px"
	 viewBox="0 0 74.4 19.6" style="enable-background:new 0 0 74.4 19.6;" xml:space="preserve">
<style type="text/css">
	.st0{fill:url(#SVGID_1_);}
	.st1{fill:url(#SVGID_2_);}
	.st2{fill:url(#SVGID_3_);}
	.st3{fill:url(#SVGID_4_);}
	.st4{fill:url(#SVGID_5_);}
	.st5{fill:url(#SVGID_6_);}
	.st6{fill:url(#SVGID_7_);}
</style>
<title>Group 41</title>
<desc>Created with Sketch.</desc>
<g>
	<g>
		<linearGradient id="SVGID_1_" gradientUnits="userSpaceOnUse" x1="8.8312" y1="18.9097" x2="2.3943" y2="2.1409">
			<stop  offset="0" style="stop-color:#B20000"/>
			<stop  offset="0.24" style="stop-color:#B20000"/>
			<stop  offset="0.2792" style="stop-color:#CF2F28"/>
			<stop  offset="0.3192" style="stop-color:#E9574C"/>
			<stop  offset="0.3509" style="stop-color:#F97162"/>
			<stop  offset="0.37" style="stop-color:#FF7A6A"/>
			<stop  offset="0.4441" style="stop-color:#F49589"/>
			<stop  offset="0.5296" style="stop-color:#E9ADA5"/>
			<stop  offset="0.6216" style="stop-color:#E1BFBB"/>
			<stop  offset="0.7221" style="stop-color:#DBCDCB"/>
			<stop  offset="0.8372" style="stop-color:#D8D5D4"/>
			<stop  offset="1" style="stop-color:#D7D7D7"/>
		</linearGradient>
		<path class="st0" d="M11.3,9c-0.2-0.2-0.3-0.4-0.5-0.6C9.6,7.2,8.8,5.7,8.4,4C8,2.8,7.5,1.8,7,1.1L6.6,0.5L6.2,1.1
			C5.6,1.8,5.1,2.8,4.8,4C4.4,5.6,3.5,7.2,2.4,8.4C2.2,8.6,2,8.8,1.9,9c-3.5,4.4-0.2,9.2,3,10.1c0.4,0.1,0.6,0.1,0.7,0.1
			c-0.1,0-0.1,0-0.2,0c-2.3-0.6-4.6-4.1-2.2-7.2c0.1-0.1,0.2-0.3,0.4-0.4c0.8-0.9,1.4-2,1.7-3.1c0.2-0.8,0.6-1.6,1-2L6.6,6l0.3,0.4
			c0.4,0.5,0.8,1.2,1,2.1c0.3,1.2,0.9,2.2,1.7,3.1c0.1,0.1,0.3,0.3,0.4,0.4c2.5,3.1,0.2,6.6-2.2,7.2c-0.1,0-0.1,0-0.2,0
			c0.1,0.1,0.3,0,0.7-0.1C11.5,18.2,14.7,13.4,11.3,9z"/>
		<linearGradient id="SVGID_2_" gradientUnits="userSpaceOnUse" x1="8.0898" y1="18.9888" x2="4.9358" y2="10.7722">
			<stop  offset="0" style="stop-color:#B20000"/>
			<stop  offset="0.2746" style="stop-color:#B20000"/>
			<stop  offset="0.3845" style="stop-color:#CF2F28"/>
			<stop  offset="0.4968" style="stop-color:#E9574C"/>
			<stop  offset="0.5856" style="stop-color:#F97162"/>
			<stop  offset="0.6391" style="stop-color:#FF7A6A"/>
			<stop  offset="0.6793" style="stop-color:#F49387"/>
			<stop  offset="0.7287" style="stop-color:#E8ABA3"/>
			<stop  offset="0.7817" style="stop-color:#E0BDB9"/>
			<stop  offset="0.8397" style="stop-color:#DACBC9"/>
			<stop  offset="0.9061" style="stop-color:#D6D3D2"/>
			<stop  offset="1" style="stop-color:#D5D5D5"/>
		</linearGradient>
		<path class="st1" d="M8.9,15.3c0.2-1.9-1.1-3.6-2.4-5.2c-1.2,1.6-2.6,3.3-2.4,5.2c0.2,2.3,1.7,3.7,1.4,3.9c1,0.2-0.5-0.8-0.7-2.7
			c-0.1-1.4,0.8-2.5,1.7-3.7c0.9,1.1,1.8,2.3,1.7,3.7c-0.2,2-1.6,2.9-0.7,2.7C7.2,19,8.7,17.6,8.9,15.3z"/>
	</g>
	<g>
		<linearGradient id="SVGID_3_" gradientUnits="userSpaceOnUse" x1="29.1479" y1="20.1028" x2="26.1427" y2="3.0596">
			<stop  offset="0.1436" style="stop-color:#B20000"/>
			<stop  offset="0.2209" style="stop-color:#CF2F28"/>
			<stop  offset="0.2999" style="stop-color:#E9574C"/>
			<stop  offset="0.3623" style="stop-color:#F97162"/>
			<stop  offset="0.4" style="stop-color:#FF7A6A"/>
			<stop  offset="0.4346" style="stop-color:#F48F83"/>
			<stop  offset="0.4831" style="stop-color:#E7A79F"/>
			<stop  offset="0.5353" style="stop-color:#DDBAB5"/>
			<stop  offset="0.5923" style="stop-color:#D6C7C5"/>
			<stop  offset="0.6576" style="stop-color:#D2CFCE"/>
			<stop  offset="0.75" style="stop-color:#D1D1D1"/>
		</linearGradient>
		<path class="st2" d="M35.8,7.3c-1.6,0-3,0.6-4.1,1.7c-1.1,1.1-1.6,2.5-1.6,4.1c0,0.1,0,0.2,0,0.2l0,0v0.4c0,1.2-0.3,2.1-1,2.6
			c-0.4,0.3-0.8,0.4-1.7,0.4c-0.9,0-1.6-0.2-2.1-0.4c-0.6-0.5-1-1.3-1-2.5v-0.7c0-3-1.5-4.5-4.6-4.5H18c-0.4,0-0.7-0.3-0.7-0.7
			l0-2.9h-2l0,13.9h2l0-5.7c0-1.4,1.1-2.5,2.5-2.5h0c1,0,1.7,0.2,2.1,0.6c0.3,0.4,0.4,1,0.4,1.9v1h0c0.1,3.1,1.7,4.7,4.9,4.8l0.3,0
			c2-0.1,3.2-0.7,3.9-1.9c0.1,0.1,0.1,0.2,0.2,0.3c1.1,1.1,2.5,1.7,4.1,1.7c1.6,0,3-0.6,4.1-1.7c1.1-1.1,1.7-2.5,1.7-4.1
			c0-1.6-0.6-3-1.7-4.1C38.7,7.9,37.4,7.3,35.8,7.3z M38.3,15.6c-0.7,0.7-1.6,1.1-2.6,1.1c-1,0-1.9-0.4-2.6-1.1
			c-0.7-0.7-1.1-1.6-1.1-2.6v0c0-1,0.4-1.9,1.1-2.6c0.7-0.7,1.6-1.1,2.6-1.1c1,0,1.9,0.4,2.6,1.1c0.8,0.7,1.2,1.6,1.2,2.6
			C39.5,14.1,39.1,14.9,38.3,15.6z"/>
		<linearGradient id="SVGID_4_" gradientUnits="userSpaceOnUse" x1="53.8894" y1="19.5632" x2="51.5911" y2="6.5292">
			<stop  offset="0.1436" style="stop-color:#B20000"/>
			<stop  offset="0.2209" style="stop-color:#CF2F28"/>
			<stop  offset="0.2999" style="stop-color:#E9574C"/>
			<stop  offset="0.3623" style="stop-color:#F97162"/>
			<stop  offset="0.4" style="stop-color:#FF7A6A"/>
			<stop  offset="0.4346" style="stop-color:#F48F83"/>
			<stop  offset="0.4831" style="stop-color:#E7A79F"/>
			<stop  offset="0.5353" style="stop-color:#DDBAB5"/>
			<stop  offset="0.5923" style="stop-color:#D6C7C5"/>
			<stop  offset="0.6576" style="stop-color:#D2CFCE"/>
			<stop  offset="0.75" style="stop-color:#D1D1D1"/>
		</linearGradient>
		<path class="st3" d="M57.4,7.3c-1.6,0-3,0.6-4.1,1.7c-1,1-1.5,2.2-1.6,3.6c-0.1,0.2-0.1,0.5-0.2,0.7c-0.4,1.6-1.7,2.9-3.3,3.2
			c0,0,0,0-0.1,0c-0.9,0.1-1.9-0.1-2.6-0.7c-0.7-0.6-1.1-1.5-1.1-2.6c0-1.2,0.4-2.1,1.1-2.7c0.6-0.6,1.3-0.9,2.1-0.9h2.4v0
			c0-1.2-1-2.2-2.2-2.2h-0.3c-1.4,0-2.6,0.5-3.7,1.4c-1.1,1.1-1.6,2.6-1.6,4.5c0,1.8,0.5,3.2,1.6,4.3c1.1,1,2.3,1.5,3.7,1.5l0.8-0.1
			c2.2-0.2,3.3-1.2,4.2-2.7c0.2,0.4,0.5,0.7,0.8,1.1c1.1,1.1,2.5,1.7,4.1,1.7c1.6,0,3-0.6,4.1-1.7c1.1-1.1,1.7-2.5,1.7-4.1
			c0-1.6-0.6-3-1.7-4.1C60.4,7.9,59,7.3,57.4,7.3z M60,15.6c-0.7,0.7-1.6,1.1-2.6,1.1c-1,0-1.9-0.4-2.6-1.1
			c-0.7-0.7-1.1-1.6-1.1-2.6c0-1,0.4-1.9,1.1-2.6c0.7-0.7,1.6-1.1,2.6-1.1c1,0,1.9,0.4,2.6,1.1c0.8,0.7,1.2,1.6,1.2,2.6
			C61.2,14.1,60.8,14.9,60,15.6z"/>
		<linearGradient id="SVGID_5_" gradientUnits="userSpaceOnUse" x1="65.2202" y1="7.2749" x2="64.7925" y2="4.8493">
			<stop  offset="0.1436" style="stop-color:#B20000"/>
			<stop  offset="0.2209" style="stop-color:#CF2F28"/>
			<stop  offset="0.2999" style="stop-color:#E9574C"/>
			<stop  offset="0.3623" style="stop-color:#F97162"/>
			<stop  offset="0.4" style="stop-color:#FF7A6A"/>
			<stop  offset="0.4346" style="stop-color:#F48F83"/>
			<stop  offset="0.4831" style="stop-color:#E7A79F"/>
			<stop  offset="0.5353" style="stop-color:#DDBAB5"/>
			<stop  offset="0.5923" style="stop-color:#D6C7C5"/>
			<stop  offset="0.6576" style="stop-color:#D2CFCE"/>
			<stop  offset="0.75" style="stop-color:#D1D1D1"/>
		</linearGradient>
		<rect x="63.9" y="5" class="st4" width="2.1" height="2.1"/>
		<linearGradient id="SVGID_6_" gradientUnits="userSpaceOnUse" x1="65.9398" y1="18.8609" x2="64.0729" y2="8.2731">
			<stop  offset="0.1436" style="stop-color:#B20000"/>
			<stop  offset="0.2209" style="stop-color:#CF2F28"/>
			<stop  offset="0.2999" style="stop-color:#E9574C"/>
			<stop  offset="0.3623" style="stop-color:#F97162"/>
			<stop  offset="0.4" style="stop-color:#FF7A6A"/>
			<stop  offset="0.4346" style="stop-color:#F48F83"/>
			<stop  offset="0.4831" style="stop-color:#E7A79F"/>
			<stop  offset="0.5353" style="stop-color:#DDBAB5"/>
			<stop  offset="0.5923" style="stop-color:#D6C7C5"/>
			<stop  offset="0.6576" style="stop-color:#D2CFCE"/>
			<stop  offset="0.75" style="stop-color:#D1D1D1"/>
		</linearGradient>
		<rect x="63.9" y="8.3" class="st5" width="2.1" height="10.5"/>
		<linearGradient id="SVGID_7_" gradientUnits="userSpaceOnUse" x1="71.655" y1="19.2711" x2="69.6225" y2="7.744">
			<stop  offset="0.1436" style="stop-color:#B20000"/>
			<stop  offset="0.2209" style="stop-color:#CF2F28"/>
			<stop  offset="0.2999" style="stop-color:#E9574C"/>
			<stop  offset="0.3623" style="stop-color:#F97162"/>
			<stop  offset="0.4" style="stop-color:#FF7A6A"/>
			<stop  offset="0.4346" style="stop-color:#F48F83"/>
			<stop  offset="0.4831" style="stop-color:#E7A79F"/>
			<stop  offset="0.5353" style="stop-color:#DDBAB5"/>
			<stop  offset="0.5923" style="stop-color:#D6C7C5"/>
			<stop  offset="0.6576" style="stop-color:#D2CFCE"/>
			<stop  offset="0.75" style="stop-color:#D1D1D1"/>
		</linearGradient>
		<path class="st6" d="M72.6,9.4c-0.8-0.7-2.1-1.1-3.8-1.1h-2.3l0,2h2.3c1.2,0,2,0.2,2.4,0.6c0.5,0.5,0.8,1.4,0.8,2.8v5h2.1v-5
			C74.1,11.7,73.6,10.2,72.6,9.4z"/>
	</g>
</g>
</svg>
