<svg id="图层_1" data-name="图层 1" xmlns="http://www.w3.org/2000/svg" xmlns:xlink="http://www.w3.org/1999/xlink" viewBox="0 0 714 716.88"><defs><style>.cls-1{fill:none;}.cls-2{clip-path:url(#clip-path);}.cls-3{fill:#ffffff;}.cls-4{fill:#ffffff;}</style><clipPath id="clip-path"><rect class="cls-1" x="0.12" width="713.88" height="716.88"/></clipPath></defs><title>币币交易-火網平台</title><g class="cls-2"><path class="cls-3" d="M357.84,712a344.65,344.65,0,0,1-62.32-5.7,19.8,19.8,0,1,1,7.16-39,303.2,303.2,0,0,0,209.16-37l.15-.09a312.92,312.92,0,0,0,115.5-429c-20.05-34.39-44.31-62.85-74.14-87a19.8,19.8,0,0,1,24.92-30.78c33.62,27.21,60.91,59.22,83.45,97.85A353.07,353.07,0,0,1,531.81,664.5a343,343,0,0,1-174,47.46M126.33,618.69a19.74,19.74,0,0,1-13.5-5.33c-26-24.28-46.1-50.17-61.4-79.14A353.07,353.07,0,0,1,181.62,51.34C240,17.54,307.18,1.43,375.82,4.78a19.8,19.8,0,1,1-1.93,39.55c-61-3-120.66,11.31-172.48,41.3A314.18,314.18,0,0,0,46,396.94,310.09,310.09,0,0,0,85.87,514.69c.14.24.27.48.4.72,13.23,25.13,30.75,47.7,53.57,69a19.8,19.8,0,0,1-13.52,34.28m231.51,97.23a350.16,350.16,0,0,1-63-5.77,23.76,23.76,0,0,1,8.59-46.74,299.27,299.27,0,0,0,206.44-36.52l.21-.12a309,309,0,0,0,114-423.58c-19.81-34-43.76-62.07-73.21-85.91a23.76,23.76,0,0,1,29.9-36.93c34,27.52,61.59,59.88,84.38,98.93A357,357,0,0,1,533.79,667.93a347,347,0,0,1-175.95,48m-58.78-45a15.84,15.84,0,0,0-2.83,31.42,338.91,338.91,0,0,0,233.57-41.28A348.57,348.57,0,0,0,658.28,183.26C636,145.06,609,113.4,575.77,86.5a15.84,15.84,0,0,0-19.93,24.63c30.2,24.45,54.76,53.26,75.07,88.08A317.43,317.43,0,0,1,514,633.66l-.09.05A307.25,307.25,0,0,1,302,671.21a15.93,15.93,0,0,0-2.89-.27M126.33,622.65a23.68,23.68,0,0,1-16.21-6.39C83.8,591.69,63.46,565.48,48,536.14A357,357,0,0,1,179.65,47.91C238.7,13.72,306.6-2.56,376,.82a23.76,23.76,0,0,1-1.14,47.5l-1.17,0c-60.25-2.94-119.15,11.16-170.3,40.78A310.22,310.22,0,0,0,49.94,396.45,306.12,306.12,0,0,0,89.3,512.7c.17.29.33.58.48.88,13,24.72,30.27,46.95,52.77,67.94a23.76,23.76,0,0,1-16.22,41.13M358,8.31A349.84,349.84,0,0,0,10.65,401.38a345.52,345.52,0,0,0,44.2,130.86l.07.14C70,561,89.84,586.5,115.52,610.47a15.84,15.84,0,1,0,21.62-23.16C114,565.7,96.2,542.79,82.77,517.26c-.11-.2-.21-.39-.32-.59a317.44,317.44,0,0,1,21.64-350.58,317.3,317.3,0,0,1,95.36-83.88c52.46-30.37,112.86-44.84,174.64-41.83a15.84,15.84,0,0,0,1.54-31.65Q366.82,8.3,358,8.31M559.74,65.47l103,19.7c12.12,3,21.21,15.16,18.18,27.28V114c-3,12.12-15.15,21.22-27.28,18.18l-103-19.7c-12.12-3-21.22-15.16-18.18-27.28V83.66c3-12.12,15.16-21.21,27.28-18.18m98.74,69.65a22,22,0,0,1-5.29-.65L550.07,114.76a28.24,28.24,0,0,1-16.15-11.18,23.19,23.19,0,0,1-3.83-18.68V83.37l.07-.28c3.5-14,17.27-23.09,30.09-19.93L663.36,82.87a28.27,28.27,0,0,1,16.16,11.18,23.18,23.18,0,0,1,3.83,18.68v1.52l-.07.28a28.27,28.27,0,0,1-11.18,16.16,23.91,23.91,0,0,1-13.62,4.42m-107.32-25,103.11,19.71a18.46,18.46,0,0,0,15.12-3.06,23.43,23.43,0,0,0,9.21-13.12v-1.51l.07-.28a18.46,18.46,0,0,0-3.06-15.12,23.43,23.43,0,0,0-13.33-9.26L559.16,67.78C548.9,65.21,537.82,72.61,534.83,84v1.51l-.07.29a18.48,18.48,0,0,0,3.06,15.12,23.43,23.43,0,0,0,13.34,9.26M43,565.55l103,19.7c12.12,3,21.21,15.16,18.18,27.28V614c-3,12.13-15.15,21.21-27.28,18.18l-103-19.7c-12.12-3-21.21-15.15-18.18-27.28v-1.51c1.52-12.12,15.15-21.22,27.28-18.19m98.64,69.63a21.84,21.84,0,0,1-5.19-.62L33.32,614.83c-13.9-3.47-23-17.1-20-29.87l0-1.52a23.59,23.59,0,0,1,10.42-16.27,24.65,24.65,0,0,1,19.73-3.95l103.11,19.72a28.23,28.23,0,0,1,16.15,11.18,23.19,23.19,0,0,1,3.83,18.68v1.52l-.07.28c-3,12.1-13.75,20.56-24.9,20.56m-107.21-25,103.11,19.71c10.27,2.57,21.34-4.83,24.32-16.18v-1.51l.07-.28a18.49,18.49,0,0,0-3.06-15.12,23.44,23.44,0,0,0-13.34-9.26L42.41,567.86a19.9,19.9,0,0,0-16,3.24,18.9,18.9,0,0,0-8.37,12.79v1.66l-.07.28c-2.58,10.33,4.92,21.48,16.39,24.38"/></g><path class="cls-3" d="M339,523c-6.67,0-11.78-1.74-15.18-5.18a13,13,0,0,1-3.88-8.9l-.06-23.71H255.69c-6.47-.44-18.72-5-18.72-19s12.24-18.61,18.72-19H275V251.58H255.84c-6.49-.38-18.77-4.86-18.77-19.05s12.28-18.67,18.77-19.05h64V195.89c0-1.16.09-8.48,5.33-13.85,2.34-2.4,6.62-5.26,13.73-5.26s11.39,2.86,13.73,5.26c5.24,5.37,5.34,12.69,5.33,13.85v17.56h44.07a104.49,104.49,0,0,1,38.28,8.47c17.89,7.93,39.22,24.93,39.22,60.83,0,34.53-15.75,51.66-26.88,59.44a63,63,0,0,1,13.19,8.37c11,9.08,24.1,26.49,24.1,57.88,0,27.08-12.08,48.7-34.94,62.49-18.61,11.24-39.13,14.23-48.32,14.23H358.08v18.74c0,.82-.1,8.42-5.55,13.91C349.18,521.19,344.51,523,339,523ZM395,448.53h.13c.06,0,.64,0,1.63,0,4,0,18-.47,30.47-6.54,14.75-7.21,22.24-19.79,22.24-37.38,0-35.53-35.09-40.09-65.66-40.09H315.35v84Zm-.48-121.27c5.4,0,23.89-.9,35.2-12.44,6.58-6.72,9.8-16.16,9.56-28.07-.66-32-32.26-34.53-41.94-34.53-.9,0-1.43,0-1.5,0H315.35v75Z"/><path class="cls-4" d="M338.95,181.79c14.41,0,14.06,14.06,14.06,14.06v22.61h49.07s72.5,0,72.5,64.3c0,49.23-34.15,60.39-34.15,60.39S485,351.44,485,408.45c0,59.6-60.64,71.73-78.26,71.73H353.08v23.74S353.17,518,339,518s-14.06-9-14.06-9l-.07-28.77H256s-14.06-1-14.06-14.06S256,452.05,256,452.05h24V246.58h-23.9s-14.06-.83-14.06-14.06,14.06-14.06,14.06-14.06h68.76V195.85s-.35-14.06,14.06-14.06m-28.6,150.47h84.13c11.57,0,50.62-3.45,49.75-45.61-.76-37.27-38.26-39.43-46.94-39.43-1.14,0-1.78,0-1.78,0H310.35v85m0,121.27h84.48s.68,0,1.9,0c10.16,0,57.7-2.48,57.7-48.92,0-43.36-46.82-45.09-70.66-45.09H310.35v94m28.6-281.75c-8.86,0-14.3,3.68-17.31,6.77-6.48,6.64-6.78,15.3-6.75,17.38v12.52h-59l-.29,0c-9.44.56-23.47,7.42-23.47,24s14,23.49,23.47,24l.29,0H270V442.05H255.69l-.34,0a29.32,29.32,0,0,0-11.06,3.28C236.34,449.6,232,457,232,466.11s4.37,16.52,12.32,20.76a29.32,29.32,0,0,0,11.06,3.28l.34,0h59.23l0,18.76a18.23,18.23,0,0,0,5.33,12.37C324.66,525.73,331,528,339,528c8.66,0,14.06-3.6,17.06-6.63,6.66-6.71,7-15.59,7-17.45V490.17h43.67c9.71,0,31.35-3.15,50.9-15C482.08,460.47,495,437.38,495,408.45c0-33.34-14.09-52-25.92-61.74a68.08,68.08,0,0,0-7.45-5.35c1-.94,2.07-2,3.11-3,9.05-9.48,19.84-26.82,19.84-55.56,0-16.88-4.49-31.41-13.33-43.18-7-9.38-16.76-16.86-28.86-22.22a110.07,110.07,0,0,0-40.31-8.9H363V195.93c0-2.08-.27-10.74-6.75-17.38-3-3.09-8.46-6.77-17.31-6.77Zm57.14,85.46s.45,0,1.21,0c2.92,0,13.15.34,22,4.71,9.8,4.82,14.68,13,14.92,24.92.22,10.65-2.44,18.66-8.13,24.46-9.94,10.15-26.72,10.94-31.62,10.94H320.35v-65H395.8l.29,0ZM320.35,369.56h63.42c42.52,0,60.66,10.49,60.66,35.09,0,15.75-6.36,26.51-19.43,32.89-11.46,5.6-24.54,6-28.27,6-.89,0-1.4,0-1.4,0h-75v-74Z"/></svg>
