<?xml version="1.0" encoding="utf-8"?>
<!-- Generator: Adobe Illustrator 22.0.1, SVG Export Plug-In . SVG Version: 6.00 Build 0)  -->
<svg version="1.1" id="图层_1" xmlns="http://www.w3.org/2000/svg" xmlns:xlink="http://www.w3.org/1999/xlink" x="0px" y="0px"
	 viewBox="0 0 575.5 575.7" style="enable-background:new 0 0 575.5 575.7;" xml:space="preserve">
<path d="M511,0H64.4C28.8,0-0.1,28.9-0.1,64.6v446.5c0,35.7,28.9,64.6,64.6,64.6H511c35.6,0,64.6-28.9,64.6-64.6V64.6
	C575.5,28.9,546.6,0,511,0z M535.4,74.2v258.5H371.8v-94.4H178.9V40.2h186v127.7h35.4V40.2h101.1C520.1,40.2,535.4,55.4,535.4,74.2z
	 M74.1,40.2H143v233.4h43.7v127.6H40v-327C40,55.4,55.3,40.2,74.1,40.2z M501.3,535.5H74.1c-18.8,0-34-15.2-34-34.1v-65.3h181.7
	V273.6h113.6v184.8h35.4v-89.6h164.7v132.7C535.4,520.3,520.1,535.5,501.3,535.5z"/>
</svg>
